<svg width="352" height="275" viewBox="0 0 352 275" fill="none" xmlns="http://www.w3.org/2000/svg">
<path fill-rule="evenodd" clip-rule="evenodd" d="M143.209 0.0908203C131.136 0.0908203 121.245 9.98264 121.245 22.0556V33.0379H0.438477V38.5291V55.0027V65.985V135.547V241.703C0.438477 259.861 15.2278 274.65 33.3856 274.65H318.927C337.085 274.65 351.874 259.861 351.874 241.703V135.547V55.0027V33.0379H231.068V22.0556C231.068 9.98264 221.177 0.0908203 209.103 0.0908203H143.209ZM143.209 11.0732H209.103C215.283 11.0732 220.086 15.8769 220.086 22.0556V33.0379H132.227V22.0556C132.227 15.8769 137.03 11.0732 143.209 11.0732ZM11.4208 44.0203H126.736H340.892V55.0027V135.547C340.892 141.727 336.089 146.53 329.91 146.53H244.389C241.09 110.281 210.288 82.4586 173.132 82.4586C136.176 82.4586 105.929 110.628 102.283 146.53H22.4032C16.2239 146.53 11.4208 141.727 11.4208 135.547V65.985V55.0027V44.0203ZM173.132 93.4195V93.4415C206.705 93.4415 233.728 119.609 233.728 152.986V153.823C233.728 187.216 206.619 214.269 173.132 214.269C139.634 214.269 112.9 187.256 112.9 153.823C112.9 120.406 139.634 93.42 173.132 93.42V93.4195ZM146.169 109.914V110.022H145.912V121.004H157.195C167.465 121.004 172.657 125.852 174.526 131.88H146.169V142.862H174.526C172.652 148.881 167.455 153.737 157.195 153.737H145.912V164.719H148.829L182.72 197.795L190.378 189.923L163.887 164.055C175.92 161.618 183.66 152.696 185.787 142.862H200.781V131.879H185.787C184.936 127.928 183.093 124.192 180.511 120.897H200.781V109.914H146.169ZM11.4208 154.423C14.6706 156.329 18.3866 157.512 22.4032 157.512H102.111C104.029 195.126 134.947 225.251 173.132 225.251C211.307 225.251 242.577 195.159 244.517 157.512H329.91C333.926 157.512 337.642 156.329 340.892 154.423V241.703C340.892 253.967 331.191 263.668 318.927 263.668H33.3856C21.122 263.668 11.4208 253.967 11.4208 241.703V154.423Z" fill="#4D8E9D"/>
</svg>
