<svg width="312" height="333" viewBox="0 0 312 333" fill="none" xmlns="http://www.w3.org/2000/svg">
<mask id="path-1-outside-1" maskUnits="userSpaceOnUse" x="-23" y="0" width="335" height="335" fill="black">
<rect fill="white" x="-23" width="335" height="335"/>
<path d="M215.216 87.0448H195.553H195.256H195.075L194.803 87.09L194.596 87.1222C194.519 87.1222 194.448 87.161 194.37 87.1803L194.144 87.2384L193.905 87.3224L193.698 87.3998L193.42 87.5354L193.278 87.6064L193.039 87.7484L192.877 87.8517C192.812 87.8904 192.754 87.9421 192.69 87.9873C192.625 88.0325 192.554 88.0841 192.496 88.1358L192.347 88.2713L192.134 88.465C192.095 88.5037 192.063 88.5489 192.03 88.5876L191.843 88.8007L191.675 88.9814C191.63 89.046 191.578 89.1105 191.533 89.1815C191.487 89.2526 191.449 89.3171 191.41 89.3817L191.293 89.5882C191.255 89.6593 191.222 89.7303 191.19 89.8013L191.093 90.0208L191.028 90.2725C190.999 90.3465 190.973 90.4219 190.951 90.4985L190.893 90.7244C190.893 90.8019 190.854 90.8793 190.841 90.9568C190.828 91.0343 190.841 91.1182 190.802 91.1957C190.763 91.2731 190.802 91.3506 190.802 91.4281C190.802 91.5055 190.802 91.6088 190.802 91.6992C190.802 91.7896 190.802 91.8089 190.802 91.867V91.9058V92.1834C190.796 92.2521 190.796 92.3212 190.802 92.3899C190.802 92.4674 190.802 92.5449 190.835 92.6223L190.873 92.8612C190.873 92.9193 190.873 92.9774 190.919 93.0355C190.964 93.0936 190.964 93.2227 190.996 93.3195C191.028 93.4164 190.996 93.4099 191.041 93.4551L191.151 93.7585L191.255 93.9715C191.293 94.0426 191.319 94.1136 191.358 94.1781C191.397 94.2427 191.442 94.3201 191.487 94.3912L191.604 94.5784C191.643 94.6391 191.686 94.6973 191.733 94.7527L191.895 94.9657L192.024 95.1013C192.089 95.1787 192.153 95.2497 192.224 95.3208L234.666 136.339C235.591 137.224 236.83 137.707 238.111 137.682C239.392 137.657 240.611 137.127 241.501 136.208C242.392 135.288 242.882 134.054 242.865 132.775C242.847 131.495 242.323 130.275 241.407 129.38L207.576 96.7281H215.216C221.957 96.721 228.479 94.3372 233.633 89.9969C238.786 85.6567 242.24 79.6388 243.385 73.004H251.724C253.009 73.004 254.242 72.4939 255.151 71.5859C256.061 70.678 256.571 69.4465 256.571 68.1624C256.571 66.8783 256.061 65.6468 255.151 64.7388C254.242 63.8308 253.009 63.3207 251.724 63.3207H243.385C242.491 58.1152 240.16 53.2618 236.656 49.3058H251.724C253.009 49.3058 254.242 48.7957 255.151 47.8877C256.061 46.9797 256.571 45.7483 256.571 44.4642C256.571 43.1801 256.061 41.9486 255.151 41.0406C254.242 40.1326 253.009 39.6225 251.724 39.6225H195.592C194.306 39.6225 193.073 40.1326 192.164 41.0406C191.255 41.9486 190.744 43.1801 190.744 44.4642C190.744 45.7483 191.255 46.9797 192.164 47.8877C193.073 48.7957 194.306 49.3058 195.592 49.3058H215.216C219.378 49.3103 223.422 50.6862 226.721 53.2202C230.021 55.7541 232.39 59.3046 233.463 63.3207H195.592C194.306 63.3207 193.073 63.8308 192.164 64.7388C191.255 65.6468 190.744 66.8783 190.744 68.1624C190.744 69.4465 191.255 70.678 192.164 71.5859C193.073 72.4939 194.306 73.004 195.592 73.004H233.463C232.394 77.0245 230.026 80.58 226.727 83.1188C223.427 85.6576 219.381 87.0377 215.216 87.0448ZM309.962 227.62C309.789 224.572 308.924 221.603 307.434 218.937C305.943 216.271 303.866 213.979 301.358 212.232C298.85 210.486 295.978 209.331 292.959 208.855C289.939 208.38 286.85 208.596 283.926 209.487L209.386 232.133C208.703 228.834 207.238 225.747 205.113 223.131C202.988 220.515 200.266 218.446 197.176 217.098L148.607 196.014C132.049 188.835 113.482 187.738 96.1917 192.915L73.3098 199.79L73.006 198.028C72.6461 195.979 71.8855 194.021 70.7678 192.266C69.65 190.511 68.197 188.993 66.4916 187.799C64.7863 186.605 62.8621 185.758 60.829 185.306C58.7959 184.855 56.6936 184.808 54.6424 185.169L15.7885 191.869L-16.9636 197.544C-17.593 197.652 -18.1948 197.884 -18.7348 198.224C-19.2747 198.565 -19.7421 199.009 -20.1103 199.53C-20.4786 200.051 -20.7404 200.64 -20.8809 201.262C-21.0214 201.884 -21.0378 202.528 -20.9291 203.157C-20.8205 203.786 -20.5889 204.387 -20.2477 204.926C-19.9064 205.465 -19.4622 205.932 -18.9403 206.3C-18.4184 206.667 -17.8291 206.929 -17.206 207.069C-16.5829 207.21 -15.9383 207.226 -15.3088 207.117L12.66 202.269L32.2001 314.873L-16.9636 323.388C-18.1591 323.594 -19.2335 324.241 -19.9747 325.201C-20.7158 326.16 -21.0698 327.362 -20.9667 328.57C-20.8636 329.777 -20.3109 330.902 -19.4177 331.722C-18.5246 332.542 -17.356 332.998 -16.1427 333C-15.8633 332.999 -15.5844 332.975 -15.3088 332.929L77.5177 316.861C81.6622 316.139 85.3508 313.805 87.7742 310.37C90.1977 306.936 91.1583 302.681 90.4453 298.54L89.3206 292.085L90.7039 291.762C93.6797 291.079 96.7698 291.062 99.7532 291.71L186.284 310.761C189.219 311.396 192.214 311.71 195.217 311.697C203.952 311.701 212.468 308.969 219.566 303.886L301.559 245.205C304.339 243.227 306.569 240.575 308.039 237.498C309.509 234.422 310.171 231.023 309.962 227.62ZM75.863 307.313L41.7536 313.22L22.2135 200.584L56.323 194.678C57.9324 194.404 59.5847 194.779 60.9175 195.721C62.2504 196.662 63.1551 198.093 63.4331 199.7L80.8854 300.187C81.1632 301.797 80.7905 303.451 79.8491 304.787C78.9076 306.123 77.4742 307.031 75.863 307.313ZM295.884 237.316L213.917 296.061C210.258 298.677 206.09 300.495 201.683 301.399C197.276 302.304 192.728 302.273 188.333 301.31L101.828 282.227C97.4426 281.271 92.8996 281.298 88.5256 282.305L87.6853 282.505L74.9775 209.422L98.984 202.205C114.076 197.68 130.285 198.634 144.741 204.897L193.317 225.98C195.585 226.97 197.468 228.673 198.678 230.83C199.888 232.988 200.359 235.48 200.02 237.93C199.966 238.328 199.889 238.722 199.787 239.111C199.08 241.983 197.27 244.463 194.749 246.014C192.228 247.566 189.197 248.066 186.31 247.406L158.709 241.19C158.088 241.05 157.445 241.033 156.818 241.142C156.19 241.25 155.59 241.481 155.051 241.82C154.513 242.16 154.047 242.603 153.68 243.123C153.313 243.642 153.052 244.229 152.911 244.85C152.771 245.47 152.755 246.112 152.863 246.739C152.972 247.366 153.203 247.966 153.543 248.503C153.883 249.041 154.326 249.506 154.847 249.873C155.367 250.24 155.955 250.501 156.576 250.64L184.17 256.825C189.366 258.006 194.816 257.169 199.417 254.484C204.017 251.798 207.421 247.465 208.94 242.365L286.693 218.737C288.216 218.264 289.828 218.145 291.404 218.388C292.981 218.632 294.481 219.231 295.79 220.142C297.099 221.052 298.183 222.249 298.959 223.641C299.735 225.033 300.182 226.584 300.267 228.175C300.373 229.945 300.027 231.713 299.26 233.312C298.493 234.911 297.331 236.289 295.884 237.316ZM223.658 174.84C240.721 174.834 257.4 169.777 271.587 160.307C285.773 150.837 296.831 137.379 303.361 121.635C309.892 105.891 311.603 88.5668 308.279 71.8517C304.954 55.1366 296.743 39.7808 284.682 27.725C276.691 19.6182 267.173 13.1714 256.675 8.75632C246.177 4.34124 234.908 2.04522 223.518 2.00066C212.127 1.9561 200.841 4.16387 190.308 8.49668C179.776 12.8295 170.207 19.2016 162.153 27.2457C154.099 35.2897 147.718 44.8465 143.38 55.3651C139.042 65.8836 136.831 77.1558 136.876 88.5317C136.92 99.9076 139.219 111.162 143.64 121.646C148.061 132.131 154.516 141.637 162.633 149.618C170.63 157.642 180.142 164.003 190.616 168.332C201.091 172.662 212.321 174.873 223.658 174.84ZM169.491 34.5679C183.885 20.3511 203.329 12.4025 223.573 12.4587C243.817 12.5149 263.216 20.5714 277.53 34.8679C291.845 49.1643 299.912 68.5383 299.968 88.7564C300.025 108.975 292.066 128.393 277.831 142.769C270.731 149.938 262.283 155.636 252.972 159.533C243.66 163.431 233.669 165.452 223.573 165.48C213.476 165.508 203.474 163.542 194.141 159.697C184.808 155.851 176.328 150.2 169.189 143.07C162.05 135.94 156.392 127.471 152.542 118.15C148.691 108.829 146.723 98.8398 146.751 88.7564C146.779 78.6731 148.803 68.6948 152.705 59.3952C156.608 50.0956 162.312 41.6581 169.491 34.5679Z"/>
</mask>
<path d="M215.216 87.0448H195.553H195.256H195.075L194.803 87.09L194.596 87.1222C194.519 87.1222 194.448 87.161 194.37 87.1803L194.144 87.2384L193.905 87.3224L193.698 87.3998L193.42 87.5354L193.278 87.6064L193.039 87.7484L192.877 87.8517C192.812 87.8904 192.754 87.9421 192.69 87.9873C192.625 88.0325 192.554 88.0841 192.496 88.1358L192.347 88.2713L192.134 88.465C192.095 88.5037 192.063 88.5489 192.03 88.5876L191.843 88.8007L191.675 88.9814C191.63 89.046 191.578 89.1105 191.533 89.1815C191.487 89.2526 191.449 89.3171 191.41 89.3817L191.293 89.5882C191.255 89.6593 191.222 89.7303 191.19 89.8013L191.093 90.0208L191.028 90.2725C190.999 90.3465 190.973 90.4219 190.951 90.4985L190.893 90.7244C190.893 90.8019 190.854 90.8793 190.841 90.9568C190.828 91.0343 190.841 91.1182 190.802 91.1957C190.763 91.2731 190.802 91.3506 190.802 91.4281C190.802 91.5055 190.802 91.6088 190.802 91.6992C190.802 91.7896 190.802 91.8089 190.802 91.867V91.9058V92.1834C190.796 92.2521 190.796 92.3212 190.802 92.3899C190.802 92.4674 190.802 92.5449 190.835 92.6223L190.873 92.8612C190.873 92.9193 190.873 92.9774 190.919 93.0355C190.964 93.0936 190.964 93.2227 190.996 93.3195C191.028 93.4164 190.996 93.4099 191.041 93.4551L191.151 93.7585L191.255 93.9715C191.293 94.0426 191.319 94.1136 191.358 94.1781C191.397 94.2427 191.442 94.3201 191.487 94.3912L191.604 94.5784C191.643 94.6391 191.686 94.6973 191.733 94.7527L191.895 94.9657L192.024 95.1013C192.089 95.1787 192.153 95.2497 192.224 95.3208L234.666 136.339C235.591 137.224 236.83 137.707 238.111 137.682C239.392 137.657 240.611 137.127 241.501 136.208C242.392 135.288 242.882 134.054 242.865 132.775C242.847 131.495 242.323 130.275 241.407 129.38L207.576 96.7281H215.216C221.957 96.721 228.479 94.3372 233.633 89.9969C238.786 85.6567 242.24 79.6388 243.385 73.004H251.724C253.009 73.004 254.242 72.4939 255.151 71.5859C256.061 70.678 256.571 69.4465 256.571 68.1624C256.571 66.8783 256.061 65.6468 255.151 64.7388C254.242 63.8308 253.009 63.3207 251.724 63.3207H243.385C242.491 58.1152 240.16 53.2618 236.656 49.3058H251.724C253.009 49.3058 254.242 48.7957 255.151 47.8877C256.061 46.9797 256.571 45.7483 256.571 44.4642C256.571 43.1801 256.061 41.9486 255.151 41.0406C254.242 40.1326 253.009 39.6225 251.724 39.6225H195.592C194.306 39.6225 193.073 40.1326 192.164 41.0406C191.255 41.9486 190.744 43.1801 190.744 44.4642C190.744 45.7483 191.255 46.9797 192.164 47.8877C193.073 48.7957 194.306 49.3058 195.592 49.3058H215.216C219.378 49.3103 223.422 50.6862 226.721 53.2202C230.021 55.7541 232.39 59.3046 233.463 63.3207H195.592C194.306 63.3207 193.073 63.8308 192.164 64.7388C191.255 65.6468 190.744 66.8783 190.744 68.1624C190.744 69.4465 191.255 70.678 192.164 71.5859C193.073 72.4939 194.306 73.004 195.592 73.004H233.463C232.394 77.0245 230.026 80.58 226.727 83.1188C223.427 85.6576 219.381 87.0377 215.216 87.0448ZM309.962 227.62C309.789 224.572 308.924 221.603 307.434 218.937C305.943 216.271 303.866 213.979 301.358 212.232C298.85 210.486 295.978 209.331 292.959 208.855C289.939 208.38 286.85 208.596 283.926 209.487L209.386 232.133C208.703 228.834 207.238 225.747 205.113 223.131C202.988 220.515 200.266 218.446 197.176 217.098L148.607 196.014C132.049 188.835 113.482 187.738 96.1917 192.915L73.3098 199.79L73.006 198.028C72.6461 195.979 71.8855 194.021 70.7678 192.266C69.65 190.511 68.197 188.993 66.4916 187.799C64.7863 186.605 62.8621 185.758 60.829 185.306C58.7959 184.855 56.6936 184.808 54.6424 185.169L15.7885 191.869L-16.9636 197.544C-17.593 197.652 -18.1948 197.884 -18.7348 198.224C-19.2747 198.565 -19.7421 199.009 -20.1103 199.53C-20.4786 200.051 -20.7404 200.64 -20.8809 201.262C-21.0214 201.884 -21.0378 202.528 -20.9291 203.157C-20.8205 203.786 -20.5889 204.387 -20.2477 204.926C-19.9064 205.465 -19.4622 205.932 -18.9403 206.3C-18.4184 206.667 -17.8291 206.929 -17.206 207.069C-16.5829 207.21 -15.9383 207.226 -15.3088 207.117L12.66 202.269L32.2001 314.873L-16.9636 323.388C-18.1591 323.594 -19.2335 324.241 -19.9747 325.201C-20.7158 326.16 -21.0698 327.362 -20.9667 328.57C-20.8636 329.777 -20.3109 330.902 -19.4177 331.722C-18.5246 332.542 -17.356 332.998 -16.1427 333C-15.8633 332.999 -15.5844 332.975 -15.3088 332.929L77.5177 316.861C81.6622 316.139 85.3508 313.805 87.7742 310.37C90.1977 306.936 91.1583 302.681 90.4453 298.54L89.3206 292.085L90.7039 291.762C93.6797 291.079 96.7698 291.062 99.7532 291.71L186.284 310.761C189.219 311.396 192.214 311.71 195.217 311.697C203.952 311.701 212.468 308.969 219.566 303.886L301.559 245.205C304.339 243.227 306.569 240.575 308.039 237.498C309.509 234.422 310.171 231.023 309.962 227.62ZM75.863 307.313L41.7536 313.22L22.2135 200.584L56.323 194.678C57.9324 194.404 59.5847 194.779 60.9175 195.721C62.2504 196.662 63.1551 198.093 63.4331 199.7L80.8854 300.187C81.1632 301.797 80.7905 303.451 79.8491 304.787C78.9076 306.123 77.4742 307.031 75.863 307.313ZM295.884 237.316L213.917 296.061C210.258 298.677 206.09 300.495 201.683 301.399C197.276 302.304 192.728 302.273 188.333 301.31L101.828 282.227C97.4426 281.271 92.8996 281.298 88.5256 282.305L87.6853 282.505L74.9775 209.422L98.984 202.205C114.076 197.68 130.285 198.634 144.741 204.897L193.317 225.98C195.585 226.97 197.468 228.673 198.678 230.83C199.888 232.988 200.359 235.48 200.02 237.93C199.966 238.328 199.889 238.722 199.787 239.111C199.08 241.983 197.27 244.463 194.749 246.014C192.228 247.566 189.197 248.066 186.31 247.406L158.709 241.19C158.088 241.05 157.445 241.033 156.818 241.142C156.19 241.25 155.59 241.481 155.051 241.82C154.513 242.16 154.047 242.603 153.68 243.123C153.313 243.642 153.052 244.229 152.911 244.85C152.771 245.47 152.755 246.112 152.863 246.739C152.972 247.366 153.203 247.966 153.543 248.503C153.883 249.041 154.326 249.506 154.847 249.873C155.367 250.24 155.955 250.501 156.576 250.64L184.17 256.825C189.366 258.006 194.816 257.169 199.417 254.484C204.017 251.798 207.421 247.465 208.94 242.365L286.693 218.737C288.216 218.264 289.828 218.145 291.404 218.388C292.981 218.632 294.481 219.231 295.79 220.142C297.099 221.052 298.183 222.249 298.959 223.641C299.735 225.033 300.182 226.584 300.267 228.175C300.373 229.945 300.027 231.713 299.26 233.312C298.493 234.911 297.331 236.289 295.884 237.316ZM223.658 174.84C240.721 174.834 257.4 169.777 271.587 160.307C285.773 150.837 296.831 137.379 303.361 121.635C309.892 105.891 311.603 88.5668 308.279 71.8517C304.954 55.1366 296.743 39.7808 284.682 27.725C276.691 19.6182 267.173 13.1714 256.675 8.75632C246.177 4.34124 234.908 2.04522 223.518 2.00066C212.127 1.9561 200.841 4.16387 190.308 8.49668C179.776 12.8295 170.207 19.2016 162.153 27.2457C154.099 35.2897 147.718 44.8465 143.38 55.3651C139.042 65.8836 136.831 77.1558 136.876 88.5317C136.92 99.9076 139.219 111.162 143.64 121.646C148.061 132.131 154.516 141.637 162.633 149.618C170.63 157.642 180.142 164.003 190.616 168.332C201.091 172.662 212.321 174.873 223.658 174.84ZM169.491 34.5679C183.885 20.3511 203.329 12.4025 223.573 12.4587C243.817 12.5149 263.216 20.5714 277.53 34.8679C291.845 49.1643 299.912 68.5383 299.968 88.7564C300.025 108.975 292.066 128.393 277.831 142.769C270.731 149.938 262.283 155.636 252.972 159.533C243.66 163.431 233.669 165.452 223.573 165.48C213.476 165.508 203.474 163.542 194.141 159.697C184.808 155.851 176.328 150.2 169.189 143.07C162.05 135.94 156.392 127.471 152.542 118.15C148.691 108.829 146.723 98.8398 146.751 88.7564C146.779 78.6731 148.803 68.6948 152.705 59.3952C156.608 50.0956 162.312 41.6581 169.491 34.5679Z" fill="#E3C76D"/>
<path d="M215.216 87.0448H195.553H195.256H195.075L194.803 87.09L194.596 87.1222C194.519 87.1222 194.448 87.161 194.37 87.1803L194.144 87.2384L193.905 87.3224L193.698 87.3998L193.42 87.5354L193.278 87.6064L193.039 87.7484L192.877 87.8517C192.812 87.8904 192.754 87.9421 192.69 87.9873C192.625 88.0325 192.554 88.0841 192.496 88.1358L192.347 88.2713L192.134 88.465C192.095 88.5037 192.063 88.5489 192.03 88.5876L191.843 88.8007L191.675 88.9814C191.63 89.046 191.578 89.1105 191.533 89.1815C191.487 89.2526 191.449 89.3171 191.41 89.3817L191.293 89.5882C191.255 89.6593 191.222 89.7303 191.19 89.8013L191.093 90.0208L191.028 90.2725C190.999 90.3465 190.973 90.4219 190.951 90.4985L190.893 90.7244C190.893 90.8019 190.854 90.8793 190.841 90.9568C190.828 91.0343 190.841 91.1182 190.802 91.1957C190.763 91.2731 190.802 91.3506 190.802 91.4281C190.802 91.5055 190.802 91.6088 190.802 91.6992C190.802 91.7896 190.802 91.8089 190.802 91.867V91.9058V92.1834C190.796 92.2521 190.796 92.3212 190.802 92.3899C190.802 92.4674 190.802 92.5449 190.835 92.6223L190.873 92.8612C190.873 92.9193 190.873 92.9774 190.919 93.0355C190.964 93.0936 190.964 93.2227 190.996 93.3195C191.028 93.4164 190.996 93.4099 191.041 93.4551L191.151 93.7585L191.255 93.9715C191.293 94.0426 191.319 94.1136 191.358 94.1781C191.397 94.2427 191.442 94.3201 191.487 94.3912L191.604 94.5784C191.643 94.6391 191.686 94.6973 191.733 94.7527L191.895 94.9657L192.024 95.1013C192.089 95.1787 192.153 95.2497 192.224 95.3208L234.666 136.339C235.591 137.224 236.83 137.707 238.111 137.682C239.392 137.657 240.611 137.127 241.501 136.208C242.392 135.288 242.882 134.054 242.865 132.775C242.847 131.495 242.323 130.275 241.407 129.38L207.576 96.7281H215.216C221.957 96.721 228.479 94.3372 233.633 89.9969C238.786 85.6567 242.24 79.6388 243.385 73.004H251.724C253.009 73.004 254.242 72.4939 255.151 71.5859C256.061 70.678 256.571 69.4465 256.571 68.1624C256.571 66.8783 256.061 65.6468 255.151 64.7388C254.242 63.8308 253.009 63.3207 251.724 63.3207H243.385C242.491 58.1152 240.16 53.2618 236.656 49.3058H251.724C253.009 49.3058 254.242 48.7957 255.151 47.8877C256.061 46.9797 256.571 45.7483 256.571 44.4642C256.571 43.1801 256.061 41.9486 255.151 41.0406C254.242 40.1326 253.009 39.6225 251.724 39.6225H195.592C194.306 39.6225 193.073 40.1326 192.164 41.0406C191.255 41.9486 190.744 43.1801 190.744 44.4642C190.744 45.7483 191.255 46.9797 192.164 47.8877C193.073 48.7957 194.306 49.3058 195.592 49.3058H215.216C219.378 49.3103 223.422 50.6862 226.721 53.2202C230.021 55.7541 232.39 59.3046 233.463 63.3207H195.592C194.306 63.3207 193.073 63.8308 192.164 64.7388C191.255 65.6468 190.744 66.8783 190.744 68.1624C190.744 69.4465 191.255 70.678 192.164 71.5859C193.073 72.4939 194.306 73.004 195.592 73.004H233.463C232.394 77.0245 230.026 80.58 226.727 83.1188C223.427 85.6576 219.381 87.0377 215.216 87.0448ZM309.962 227.62C309.789 224.572 308.924 221.603 307.434 218.937C305.943 216.271 303.866 213.979 301.358 212.232C298.85 210.486 295.978 209.331 292.959 208.855C289.939 208.38 286.85 208.596 283.926 209.487L209.386 232.133C208.703 228.834 207.238 225.747 205.113 223.131C202.988 220.515 200.266 218.446 197.176 217.098L148.607 196.014C132.049 188.835 113.482 187.738 96.1917 192.915L73.3098 199.79L73.006 198.028C72.6461 195.979 71.8855 194.021 70.7678 192.266C69.65 190.511 68.197 188.993 66.4916 187.799C64.7863 186.605 62.8621 185.758 60.829 185.306C58.7959 184.855 56.6936 184.808 54.6424 185.169L15.7885 191.869L-16.9636 197.544C-17.593 197.652 -18.1948 197.884 -18.7348 198.224C-19.2747 198.565 -19.7421 199.009 -20.1103 199.53C-20.4786 200.051 -20.7404 200.64 -20.8809 201.262C-21.0214 201.884 -21.0378 202.528 -20.9291 203.157C-20.8205 203.786 -20.5889 204.387 -20.2477 204.926C-19.9064 205.465 -19.4622 205.932 -18.9403 206.3C-18.4184 206.667 -17.8291 206.929 -17.206 207.069C-16.5829 207.21 -15.9383 207.226 -15.3088 207.117L12.66 202.269L32.2001 314.873L-16.9636 323.388C-18.1591 323.594 -19.2335 324.241 -19.9747 325.201C-20.7158 326.16 -21.0698 327.362 -20.9667 328.57C-20.8636 329.777 -20.3109 330.902 -19.4177 331.722C-18.5246 332.542 -17.356 332.998 -16.1427 333C-15.8633 332.999 -15.5844 332.975 -15.3088 332.929L77.5177 316.861C81.6622 316.139 85.3508 313.805 87.7742 310.37C90.1977 306.936 91.1583 302.681 90.4453 298.54L89.3206 292.085L90.7039 291.762C93.6797 291.079 96.7698 291.062 99.7532 291.71L186.284 310.761C189.219 311.396 192.214 311.71 195.217 311.697C203.952 311.701 212.468 308.969 219.566 303.886L301.559 245.205C304.339 243.227 306.569 240.575 308.039 237.498C309.509 234.422 310.171 231.023 309.962 227.62ZM75.863 307.313L41.7536 313.22L22.2135 200.584L56.323 194.678C57.9324 194.404 59.5847 194.779 60.9175 195.721C62.2504 196.662 63.1551 198.093 63.4331 199.7L80.8854 300.187C81.1632 301.797 80.7905 303.451 79.8491 304.787C78.9076 306.123 77.4742 307.031 75.863 307.313ZM295.884 237.316L213.917 296.061C210.258 298.677 206.09 300.495 201.683 301.399C197.276 302.304 192.728 302.273 188.333 301.31L101.828 282.227C97.4426 281.271 92.8996 281.298 88.5256 282.305L87.6853 282.505L74.9775 209.422L98.984 202.205C114.076 197.68 130.285 198.634 144.741 204.897L193.317 225.98C195.585 226.97 197.468 228.673 198.678 230.83C199.888 232.988 200.359 235.48 200.02 237.93C199.966 238.328 199.889 238.722 199.787 239.111C199.08 241.983 197.27 244.463 194.749 246.014C192.228 247.566 189.197 248.066 186.31 247.406L158.709 241.19C158.088 241.05 157.445 241.033 156.818 241.142C156.19 241.25 155.59 241.481 155.051 241.82C154.513 242.16 154.047 242.603 153.68 243.123C153.313 243.642 153.052 244.229 152.911 244.85C152.771 245.47 152.755 246.112 152.863 246.739C152.972 247.366 153.203 247.966 153.543 248.503C153.883 249.041 154.326 249.506 154.847 249.873C155.367 250.24 155.955 250.501 156.576 250.64L184.17 256.825C189.366 258.006 194.816 257.169 199.417 254.484C204.017 251.798 207.421 247.465 208.94 242.365L286.693 218.737C288.216 218.264 289.828 218.145 291.404 218.388C292.981 218.632 294.481 219.231 295.79 220.142C297.099 221.052 298.183 222.249 298.959 223.641C299.735 225.033 300.182 226.584 300.267 228.175C300.373 229.945 300.027 231.713 299.26 233.312C298.493 234.911 297.331 236.289 295.884 237.316ZM223.658 174.84C240.721 174.834 257.4 169.777 271.587 160.307C285.773 150.837 296.831 137.379 303.361 121.635C309.892 105.891 311.603 88.5668 308.279 71.8517C304.954 55.1366 296.743 39.7808 284.682 27.725C276.691 19.6182 267.173 13.1714 256.675 8.75632C246.177 4.34124 234.908 2.04522 223.518 2.00066C212.127 1.9561 200.841 4.16387 190.308 8.49668C179.776 12.8295 170.207 19.2016 162.153 27.2457C154.099 35.2897 147.718 44.8465 143.38 55.3651C139.042 65.8836 136.831 77.1558 136.876 88.5317C136.92 99.9076 139.219 111.162 143.64 121.646C148.061 132.131 154.516 141.637 162.633 149.618C170.63 157.642 180.142 164.003 190.616 168.332C201.091 172.662 212.321 174.873 223.658 174.84ZM169.491 34.5679C183.885 20.3511 203.329 12.4025 223.573 12.4587C243.817 12.5149 263.216 20.5714 277.53 34.8679C291.845 49.1643 299.912 68.5383 299.968 88.7564C300.025 108.975 292.066 128.393 277.831 142.769C270.731 149.938 262.283 155.636 252.972 159.533C243.66 163.431 233.669 165.452 223.573 165.48C213.476 165.508 203.474 163.542 194.141 159.697C184.808 155.851 176.328 150.2 169.189 143.07C162.05 135.94 156.392 127.471 152.542 118.15C148.691 108.829 146.723 98.8398 146.751 88.7564C146.779 78.6731 148.803 68.6948 152.705 59.3952C156.608 50.0956 162.312 41.6581 169.491 34.5679Z" stroke="#E3C76D" stroke-width="4" mask="url(#path-1-outside-1)"/>
</svg>
