<svg width="395" height="395" viewBox="0 0 395 395" fill="none" xmlns="http://www.w3.org/2000/svg">
<g filter="url(#filter0_d)">
<path d="M262.845 237.618H132.156C130.109 237.618 128.147 238.431 126.7 239.878C125.253 241.325 124.441 243.287 124.441 245.333C124.441 247.379 125.253 249.341 126.7 250.788C128.147 252.235 130.109 253.048 132.156 253.048H262.845C264.891 253.048 266.853 252.235 268.3 250.788C269.747 249.341 270.56 247.379 270.56 245.333C270.56 243.287 269.747 241.325 268.3 239.878C266.853 238.431 264.891 237.618 262.845 237.618ZM262.845 275.112H132.156C130.109 275.112 128.147 275.925 126.7 277.372C125.253 278.819 124.441 280.781 124.441 282.827C124.441 284.873 125.253 286.836 126.7 288.282C128.147 289.729 130.109 290.542 132.156 290.542H262.845C264.891 290.542 266.853 289.729 268.3 288.282C269.747 286.836 270.56 284.873 270.56 282.827C270.56 280.781 269.747 278.819 268.3 277.372C266.853 275.925 264.891 275.112 262.845 275.112Z" fill="#ABC791"/>
</g>
<path d="M264.606 319.914L264.595 319.918L232.887 333.419L231.905 333.838L230.923 333.417L199.601 319.993L199.593 319.99L199.585 319.986C198.94 319.704 198.243 319.559 197.538 319.559C196.834 319.559 196.137 319.704 195.492 319.986L195.484 319.99L195.476 319.993L164.154 333.417L163.172 333.838L162.189 333.419L130.481 319.918L130.471 319.914L130.46 319.909C129.815 319.627 129.118 319.482 128.413 319.482C127.711 319.482 127.015 319.627 126.371 319.907C126.369 319.908 126.368 319.909 126.367 319.909L103.535 329.936L100.03 331.476V327.648V63.2598V60.7598H102.53H292.624H295.124V63.2598V327.648V331.471L291.621 329.938L268.71 319.909L264.606 319.914ZM264.606 319.914L264.617 319.909M264.606 319.914L264.617 319.909M264.617 319.909C265.262 319.627 265.959 319.482 266.663 319.482C267.367 319.482 268.063 319.627 268.708 319.908L264.617 319.909ZM27.5639 146.404L25.8067 148.161L27.5639 146.404C26.5863 145.426 26.0349 144.101 26.03 142.719V55.5489C26.0349 54.1663 26.5863 52.8417 27.5639 51.864C28.5416 50.8863 29.8662 50.3349 31.2488 50.3301H363.751C365.133 50.3349 366.458 50.8863 367.436 51.864C368.414 52.8425 368.966 54.1684 368.969 55.5521V142.715C368.966 144.099 368.414 145.425 367.436 146.404C366.458 147.381 365.133 147.933 363.75 147.938C363.749 147.938 363.748 147.938 363.747 147.938L307.976 147.938H305.476V150.438V339.451V339.464L305.476 339.477C305.483 340.16 305.354 340.838 305.096 341.471L307.41 342.416L305.096 341.471C304.837 342.103 304.455 342.678 303.972 343.162C303.489 343.645 302.914 344.027 302.281 344.285C301.648 344.544 300.97 344.673 300.287 344.666L300.251 344.666L300.216 344.667C299.515 344.679 298.821 344.54 298.179 344.259L267.63 330.836L266.643 330.402L265.65 330.823L233.942 344.247L233.929 344.252L233.916 344.258C233.271 344.54 232.574 344.685 231.869 344.685C231.165 344.685 230.468 344.54 229.823 344.258L229.815 344.254L229.807 344.251L198.485 330.827L197.5 330.405L196.515 330.827L165.193 344.251L165.185 344.254L165.177 344.258C164.531 344.54 163.834 344.685 163.13 344.685C162.426 344.685 161.729 344.54 161.083 344.258L161.07 344.252L161.057 344.247L129.349 330.823L128.356 330.402L127.369 330.836L96.8584 344.243C96.8526 344.245 96.8467 344.248 96.8408 344.25C96.0357 344.584 95.1622 344.72 94.2936 344.647C93.4289 344.574 92.5941 344.296 91.8586 343.836C91.1451 343.353 90.5596 342.704 90.1527 341.945C89.741 341.176 89.5248 340.318 89.5232 339.447V150.438V147.938H87.0232L31.2521 147.938C31.2513 147.938 31.2505 147.938 31.2497 147.938C29.8668 147.933 28.5418 147.381 27.5639 146.404ZM36.4597 135.008V137.508H38.9597H87.0232H89.5232V135.008V63.2598V60.7598H87.0232H38.9597H36.4597V63.2598V135.008ZM356.04 137.508H358.54V135.008V63.2598V60.7598H356.04H307.976H305.476V63.2598V135.008V137.508H307.976H356.04Z" fill="#ABC791" stroke="#ABC791" stroke-width="5"/>
<path d="M228.051 112.869C230.097 112.869 232.059 112.056 233.506 110.61C234.953 109.163 235.765 107.2 235.765 105.154C235.765 103.108 234.953 101.146 233.506 99.6991C232.059 98.2523 230.097 97.4395 228.051 97.4395H166.949C164.903 97.4395 162.941 98.2523 161.494 99.6991C160.047 101.146 159.234 103.108 159.234 105.154C159.234 107.2 160.047 109.163 161.494 110.61C162.941 112.056 164.903 112.869 166.949 112.869H184.462C188.007 112.862 191.479 113.877 194.461 115.793C197.444 117.709 199.812 120.443 201.28 123.67H167.026C164.98 123.67 163.018 124.483 161.571 125.93C160.124 127.376 159.311 129.339 159.311 131.385C159.311 133.431 160.124 135.393 161.571 136.84C163.018 138.287 164.98 139.1 167.026 139.1H201.28C199.799 142.316 197.428 145.042 194.448 146.956C191.468 148.87 188.003 149.891 184.462 149.9H166.949C165.403 149.902 163.892 150.367 162.612 151.235C161.332 152.103 160.342 153.335 159.769 154.772C159.196 156.208 159.067 157.783 159.398 159.294C159.729 160.805 160.505 162.182 161.626 163.247L205.292 204.521C206.735 205.871 208.64 206.616 210.615 206.604C211.665 206.597 212.703 206.382 213.67 205.972C214.637 205.561 215.512 204.964 216.247 204.213C216.942 203.479 217.485 202.615 217.846 201.671C218.207 200.726 218.378 199.72 218.349 198.71C218.32 197.699 218.093 196.705 217.679 195.782C217.265 194.86 216.674 194.028 215.938 193.335L186.313 165.33C193.632 164.907 200.618 162.133 206.233 157.421C211.849 152.709 215.794 146.31 217.481 139.177H228.051C230.097 139.177 232.059 138.364 233.506 136.917C234.953 135.47 235.765 133.508 235.765 131.462C235.765 129.416 234.953 127.454 233.506 126.007C232.059 124.56 230.097 123.747 228.051 123.747H217.481C216.583 119.903 215.017 116.247 212.852 112.946H228.051V112.869Z" fill="#ABC791"/>
<defs>
<filter id="filter0_d" x="120.441" y="237.618" width="154.119" height="60.9238" filterUnits="userSpaceOnUse" color-interpolation-filters="sRGB">
<feFlood flood-opacity="0" result="BackgroundImageFix"/>
<feColorMatrix in="SourceAlpha" type="matrix" values="0 0 0 0 0 0 0 0 0 0 0 0 0 0 0 0 0 0 127 0"/>
<feOffset dy="4"/>
<feGaussianBlur stdDeviation="2"/>
<feColorMatrix type="matrix" values="0 0 0 0 0 0 0 0 0 0 0 0 0 0 0 0 0 0 0.25 0"/>
<feBlend mode="normal" in2="BackgroundImageFix" result="effect1_dropShadow"/>
<feBlend mode="normal" in="SourceGraphic" in2="effect1_dropShadow" result="shape"/>
</filter>
</defs>
</svg>
