<svg width="323" height="341" viewBox="0 0 323 341" fill="none" xmlns="http://www.w3.org/2000/svg">
<g filter="url(#filter0_d)">
<path d="M114.051 239.349H262.741C267.512 239.368 272.176 237.9 276.118 235.137C280.06 232.375 283.095 228.448 284.821 223.875L317.359 138.684C318.771 134.987 319.283 130.991 318.851 127.043C318.419 123.096 317.056 119.317 314.879 116.035C312.703 112.753 309.78 110.067 306.364 108.211C302.948 106.354 299.143 105.384 295.28 105.384H286.247L274.853 43.6917C274.23 40.3467 272.493 37.3292 269.941 35.1578C267.389 32.9865 264.181 31.7969 260.869 31.7935H260.296V25.4892C260.298 22.1425 259.658 18.8283 258.413 15.7359C257.169 12.6435 255.344 9.83345 253.042 7.46639C250.741 5.09933 248.009 3.22161 245.002 1.9405C241.994 0.659391 238.771 0 235.516 0C232.26 0 229.037 0.659391 226.03 1.9405C223.022 3.22161 220.29 5.09933 217.989 7.46639C215.688 9.83345 213.863 12.6435 212.618 15.7359C211.373 18.8283 210.734 22.1425 210.735 25.4892V31.7936H210.163C206.85 31.7971 203.642 32.9871 201.09 35.1591C198.538 37.3311 196.801 40.3493 196.179 43.6948L192.819 61.8891L189.459 43.6917C188.836 40.3467 187.099 37.3292 184.547 35.1578C181.995 32.9865 178.787 31.7969 175.474 31.7935H174.902V25.4892C174.904 22.1425 174.264 18.8283 173.019 15.7359C171.775 12.6435 169.95 9.83345 167.648 7.46639C165.347 5.09933 162.615 3.22161 159.607 1.9405C156.6 0.659391 153.377 0 150.122 0C146.866 0 143.643 0.659391 140.636 1.9405C137.628 3.22161 134.896 5.09933 132.595 7.46639C130.294 9.83345 128.469 12.6435 127.224 15.7359C125.979 18.8283 125.34 22.1425 125.341 25.4892V31.7936H124.769C121.456 31.7971 118.248 32.9871 115.696 35.1591C113.144 37.3311 111.407 40.3493 110.785 43.6948L99.3913 105.384H75.1483L70.3737 83.8347C69.4942 79.8101 67.6311 76.0826 64.9603 73.0043C62.2896 69.9261 58.8995 67.5988 55.1104 66.2425L10.3137 50.0576C9.12683 49.6299 7.82336 49.7042 6.68975 50.2641C5.55615 50.8241 4.68518 51.8238 4.26827 53.0437C3.85136 54.2636 3.92263 55.6037 4.46641 56.7696C5.0102 57.9354 5.982 58.8316 7.16823 59.2611L51.9649 75.446C54.2384 76.2596 56.2725 77.6559 57.8749 79.5028C59.4773 81.3497 60.5951 83.5862 61.1227 86.0009L66.7378 111.345L66.7389 111.348L66.7397 111.353L94.8594 237.27C90.7643 241.114 87.8515 246.104 86.4797 251.627C85.1078 257.151 85.3367 262.966 87.1381 268.357C88.9396 273.748 92.235 278.481 96.6187 281.971C101.003 285.462 106.283 287.559 111.811 288.003C108.532 291.972 106.424 296.822 105.737 301.982C105.05 307.141 105.812 312.395 107.933 317.124C110.054 321.853 113.447 325.86 117.71 328.673C121.973 331.485 126.929 332.986 131.994 332.999C137.06 333.011 142.023 331.534 146.299 328.742C150.575 325.951 153.986 321.96 156.129 317.242C158.272 312.523 159.058 307.273 158.395 302.11C157.732 296.947 155.647 292.087 152.385 288.102H216.098C212.841 292.083 210.756 296.938 210.091 302.095C209.425 307.252 210.206 312.497 212.342 317.213C214.477 321.93 217.878 325.921 222.145 328.718C226.412 331.514 231.367 333 236.427 333C241.487 333 246.442 331.514 250.709 328.718C254.976 325.921 258.377 321.93 260.513 317.213C262.648 312.497 263.429 307.252 262.763 302.095C262.098 296.938 260.014 292.083 256.756 288.102H286.325C287.583 288.102 288.79 287.588 289.68 286.674C290.569 285.759 291.069 284.519 291.069 283.225C291.069 281.931 290.569 280.691 289.68 279.776C288.79 278.861 287.583 278.348 286.325 278.348H114.051C111.56 278.348 109.093 277.843 106.792 276.863C104.491 275.883 102.4 274.447 100.639 272.636C98.8779 270.826 97.4808 268.676 96.5277 266.31C95.5745 263.945 95.0839 261.409 95.0839 258.848C95.0839 256.288 95.5745 253.752 96.5277 251.386C97.4808 249.02 98.8779 246.871 100.639 245.06C102.4 243.25 104.491 241.813 106.792 240.833C109.093 239.853 111.56 239.349 114.051 239.349ZM236.427 288.102C239.805 288.102 243.107 289.132 245.916 291.061C248.724 292.991 250.913 295.733 252.206 298.941C253.499 302.15 253.837 305.68 253.178 309.086C252.519 312.492 250.892 315.621 248.504 318.077C246.115 320.532 243.072 322.204 239.759 322.882C236.446 323.559 233.012 323.212 229.891 321.883C226.771 320.554 224.103 318.303 222.227 315.416C220.35 312.528 219.348 309.134 219.348 305.661C219.353 301.006 221.154 296.543 224.356 293.251C227.558 289.959 231.899 288.108 236.427 288.102ZM132.057 288.102C135.434 288.102 138.736 289.132 141.545 291.061C144.354 292.991 146.543 295.733 147.835 298.941C149.128 302.15 149.466 305.68 148.807 309.086C148.148 312.492 146.522 315.621 144.133 318.077C141.745 320.532 138.701 322.204 135.388 322.882C132.075 323.559 128.642 323.212 125.521 321.883C122.4 320.554 119.733 318.303 117.856 315.416C115.979 312.528 114.978 309.134 114.978 305.661C114.983 301.006 116.784 296.543 119.986 293.251C123.187 289.959 127.529 288.108 132.057 288.102ZM220.224 25.4892C220.222 23.4237 220.617 21.3783 221.385 19.4697C222.153 17.5611 223.279 15.8268 224.699 14.3658C226.119 12.9049 227.805 11.7459 229.661 10.9552C231.517 10.1645 233.507 9.75749 235.516 9.75749C237.525 9.75749 239.514 10.1645 241.37 10.9552C243.226 11.7459 244.912 12.9049 246.332 14.3658C247.752 15.8268 248.879 17.5611 249.647 19.4697C250.414 21.3783 250.809 23.4237 250.808 25.4892V31.7936H220.224V25.4892ZM205.5 45.5181C205.708 44.4024 206.287 43.3958 207.138 42.6713C207.989 41.9469 209.059 41.5498 210.163 41.5483H210.735V56.1778C210.735 57.4714 211.235 58.712 212.125 59.6267C213.015 60.5413 214.221 61.0552 215.48 61.0552C216.738 61.0552 217.944 60.5413 218.834 59.6267C219.724 58.712 220.224 57.4714 220.224 56.1778V41.5483H250.808V56.1778C250.808 57.4714 251.308 58.712 252.197 59.6267C253.087 60.5413 254.294 61.0552 255.552 61.0552C256.81 61.0552 258.017 60.5413 258.906 59.6267C259.796 58.712 260.296 57.4714 260.296 56.1778V41.5483H260.869C261.973 41.5496 263.043 41.9462 263.894 42.6701C264.745 43.3939 265.324 44.3998 265.532 45.515L276.589 105.384H200.852L197.648 88.0357L205.5 45.5181ZM134.83 25.4892C134.828 23.4237 135.223 21.3783 135.991 19.4697C136.759 17.5611 137.885 15.8268 139.305 14.3658C140.725 12.9049 142.411 11.7459 144.267 10.9552C146.123 10.1645 148.113 9.75749 150.122 9.75749C152.131 9.75749 154.12 10.1645 155.976 10.9552C157.832 11.7459 159.518 12.9049 160.938 14.3658C162.358 15.8268 163.484 17.5611 164.252 19.4697C165.02 21.3783 165.415 23.4237 165.414 25.4892V31.7936H134.83V25.4892ZM120.106 45.5181C120.313 44.4024 120.892 43.3958 121.743 42.6713C122.594 41.9469 123.664 41.5498 124.769 41.5483H125.341V56.1778C125.341 57.4714 125.841 58.712 126.731 59.6267C127.62 60.5413 128.827 61.0552 130.085 61.0552C131.344 61.0552 132.55 60.5413 133.44 59.6267C134.33 58.712 134.829 57.4714 134.829 56.1778V41.5483H165.414V56.1778C165.414 57.4714 165.913 58.712 166.803 59.6267C167.693 60.5413 168.9 61.0552 170.158 61.0552C171.416 61.0552 172.623 60.5413 173.512 59.6267C174.402 58.712 174.902 57.4714 174.902 56.1778V41.5483H175.474C176.579 41.5496 177.648 41.9461 178.499 42.6698C179.35 43.3936 179.93 44.3993 180.138 45.5143L188.172 89.0186C188.177 89.0398 188.18 89.061 188.184 89.082L191.195 105.384H109.049L120.106 45.5181ZM77.32 115.139H295.28C297.598 115.139 299.881 115.721 301.93 116.835C303.98 117.949 305.733 119.56 307.039 121.529C308.345 123.499 309.163 125.766 309.422 128.134C309.681 130.503 309.374 132.9 308.527 135.119L275.989 220.31C274.953 223.054 273.132 225.41 270.767 227.067C268.402 228.725 265.603 229.606 262.741 229.594H114.051C110.385 229.592 106.755 230.323 103.36 231.744L77.32 115.139Z" fill="#515A7B"/>
</g>
<defs>
<filter id="filter0_d" x="0" y="0" width="323" height="341" filterUnits="userSpaceOnUse" color-interpolation-filters="sRGB">
<feFlood flood-opacity="0" result="BackgroundImageFix"/>
<feColorMatrix in="SourceAlpha" type="matrix" values="0 0 0 0 0 0 0 0 0 0 0 0 0 0 0 0 0 0 127 0"/>
<feOffset dy="4"/>
<feGaussianBlur stdDeviation="2"/>
<feColorMatrix type="matrix" values="0 0 0 0 0 0 0 0 0 0 0 0 0 0 0 0 0 0 0.25 0"/>
<feBlend mode="normal" in2="BackgroundImageFix" result="effect1_dropShadow"/>
<feBlend mode="normal" in="SourceGraphic" in2="effect1_dropShadow" result="shape"/>
</filter>
</defs>
</svg>
