<svg width="68" height="68" viewBox="0 0 68 68" fill="none" xmlns="http://www.w3.org/2000/svg">
<path d="M45.2735 40.8262H23.1313C22.7846 40.8262 22.4521 40.9639 22.207 41.209C21.9619 41.4541 21.8242 41.7866 21.8242 42.1333C21.8242 42.4799 21.9619 42.8124 22.207 43.0575C22.4521 43.3027 22.7846 43.4404 23.1313 43.4404H45.2735C45.6201 43.4404 45.9526 43.3027 46.1977 43.0575C46.4428 42.8124 46.5805 42.4799 46.5805 42.1333C46.5805 41.7866 46.4428 41.4541 46.1977 41.209C45.9526 40.9639 45.6201 40.8262 45.2735 40.8262ZM45.2735 47.1787H23.1313C22.7846 47.1787 22.4521 47.3164 22.207 47.5615C21.9619 47.8066 21.8242 48.1391 21.8242 48.4858C21.8242 48.8324 21.9619 49.1649 22.207 49.41C22.4521 49.6551 22.7846 49.7929 23.1313 49.7929H45.2735C45.6201 49.7929 45.9526 49.6551 46.1977 49.41C46.4428 49.1649 46.5805 48.8324 46.5805 48.4858C46.5805 48.1391 46.4428 47.8066 46.1977 47.5615C45.9526 47.3164 45.6201 47.1787 45.2735 47.1787Z" fill="white"/>
<path d="M62.3703 8.6709H6.03447C5.68811 8.6719 5.35623 8.80993 5.11132 9.05484C4.8664 9.29975 4.72837 9.63164 4.72737 9.97799V24.7482C4.72837 25.0945 4.8664 25.4264 5.11132 25.6713C5.35623 25.9162 5.68811 26.0543 6.03447 26.0553H15.4848V58.0791C15.4852 58.2964 15.539 58.5101 15.6416 58.7016C15.7442 58.8931 15.8923 59.0564 16.073 59.1771C16.2562 59.2932 16.4648 59.3633 16.681 59.3815C16.8972 59.3997 17.1146 59.3654 17.3147 59.2817L22.4908 57.0073L27.863 59.2817C28.0258 59.3528 28.2016 59.3895 28.3793 59.3895C28.557 59.3895 28.7327 59.3528 28.8956 59.2817L34.2024 57.0073L39.5092 59.2817C39.672 59.3528 39.8478 59.3895 40.0255 59.3895C40.2032 59.3895 40.379 59.3528 40.5418 59.2817L45.914 57.0073L51.0901 59.2817C51.2548 59.3538 51.4331 59.3895 51.6129 59.3862C51.785 59.388 51.9558 59.3554 52.1152 59.2903C52.2745 59.2252 52.4193 59.129 52.541 59.0073C52.6628 58.8855 52.759 58.7408 52.8241 58.5814C52.8891 58.422 52.9217 58.2513 52.92 58.0791V26.0553H62.3703C62.7166 26.0543 63.0485 25.9162 63.2934 25.6713C63.5384 25.4264 63.6764 25.0945 63.6774 24.7482V9.97799C63.6764 9.63164 63.5384 9.29975 63.2934 9.05484C63.0485 8.80993 62.7166 8.6719 62.3703 8.6709ZM7.34156 23.4411V11.2851H15.4848V23.4411H7.34156ZM46.4368 54.38C46.274 54.3089 46.0982 54.2722 45.9205 54.2722C45.7428 54.2722 45.567 54.3089 45.4042 54.38L40.032 56.6675L34.7252 54.3931C34.5624 54.322 34.3866 54.2853 34.2089 54.2853C34.0312 54.2853 33.8555 54.322 33.6926 54.3931L28.3858 56.6675L23.0136 54.38C22.8508 54.3089 22.675 54.2722 22.4973 54.2722C22.3196 54.2722 22.1439 54.3089 21.981 54.38L18.112 56.0793V11.2851H50.3189V56.0793L46.4368 54.38ZM61.0632 23.4411H52.92V11.2851H61.0632V23.4411Z" fill="white"/>
<path d="M39.3785 19.6904C39.7251 19.6904 40.0576 19.5527 40.3027 19.3075C40.5478 19.0624 40.6856 18.7299 40.6856 18.3833C40.6856 18.0366 40.5478 17.7041 40.3027 17.459C40.0576 17.2139 39.7251 17.0762 39.3785 17.0762H29.0263C28.6796 17.0762 28.3471 17.2139 28.102 17.459C27.8569 17.7041 27.7192 18.0366 27.7192 18.3833C27.7192 18.7299 27.8569 19.0624 28.102 19.3075C28.3471 19.5527 28.6796 19.6904 29.0263 19.6904H31.9934C32.594 19.6892 33.1822 19.8612 33.6876 20.1857C34.193 20.5103 34.5941 20.9736 34.8428 21.5203H29.0393C28.6927 21.5203 28.3602 21.658 28.1151 21.9031C27.87 22.1483 27.7322 22.4807 27.7322 22.8274C27.7322 23.1741 27.87 23.5065 28.1151 23.7516C28.3602 23.9968 28.6927 24.1345 29.0393 24.1345H34.8428C34.5919 24.6795 34.1902 25.1414 33.6854 25.4656C33.1805 25.7898 32.5934 25.9629 31.9934 25.9644H29.0263C28.7642 25.9647 28.5083 26.0435 28.2915 26.1906C28.0747 26.3377 27.9069 26.5464 27.8098 26.7898C27.7128 27.0331 27.6909 27.3 27.7469 27.556C27.803 27.8119 27.9345 28.0452 28.1244 28.2257L35.5225 35.2187C35.767 35.4473 36.0897 35.5736 36.4244 35.5716C36.6023 35.5704 36.7783 35.5339 36.942 35.4644C37.1058 35.3948 37.2542 35.2936 37.3786 35.1664C37.4964 35.042 37.5884 34.8957 37.6496 34.7357C37.7107 34.5757 37.7396 34.4052 37.7348 34.234C37.7299 34.0628 37.6913 33.8943 37.6213 33.738C37.5512 33.5818 37.4509 33.4408 37.3263 33.3234L32.3071 28.5786C33.547 28.5069 34.7307 28.037 35.6821 27.2386C36.6335 26.4403 37.3018 25.3562 37.5877 24.1476H39.3785C39.7251 24.1476 40.0576 24.0098 40.3027 23.7647C40.5478 23.5196 40.6856 23.1871 40.6856 22.8405C40.6856 22.4938 40.5478 22.1613 40.3027 21.9162C40.0576 21.6711 39.7251 21.5334 39.3785 21.5334H37.5877C37.4356 20.8821 37.1702 20.2627 36.8035 19.7034H39.3785V19.6904Z" fill="white"/>
</svg>
