<svg width="169" height="36" viewBox="0 0 169 36" fill="none" xmlns="http://www.w3.org/2000/svg">
<g clip-path="url(#clip0)">
<path d="M144.858 30.0424C144.854 29.2664 145.003 28.4972 145.296 27.779C145.59 27.0609 146.022 26.4079 146.568 25.8576C147.114 25.3073 147.763 24.8705 148.478 24.5722C149.193 24.274 149.959 24.1203 150.734 24.1198C151.655 24.1127 152.564 24.3275 153.385 24.7462C154.206 25.1648 154.915 25.7751 155.451 26.5256L153.671 27.8216C153.357 27.3556 152.932 26.975 152.435 26.7137C151.938 26.4525 151.384 26.3188 150.823 26.3245C149.851 26.3472 148.926 26.7496 148.246 27.4458C147.566 28.142 147.184 29.0769 147.182 30.0513C147.179 31.0257 147.557 31.9624 148.234 32.6618C148.911 33.3611 149.834 33.7678 150.805 33.7951C151.372 33.8043 151.932 33.6703 152.434 33.4057C152.936 33.141 153.363 32.7541 153.676 32.2806L155.456 33.5927C154.917 34.3406 154.208 34.9489 153.387 35.3673C152.567 35.7857 151.659 36.0021 150.738 35.9986C149.961 35.9978 149.192 35.8427 148.475 35.5424C147.757 35.242 147.107 34.8022 146.56 34.2485C146.013 33.6947 145.581 33.038 145.289 32.3161C144.997 31.5941 144.85 30.8214 144.858 30.0424Z" fill="black"/>
<path d="M156.425 31.9094C156.399 31.0695 156.623 30.2409 157.07 29.5298C157.516 28.8186 158.164 28.2572 158.931 27.9175C159.698 27.5777 160.549 27.4751 161.374 27.6228C162.199 27.7705 162.962 28.1618 163.564 28.7465C164.166 29.3312 164.58 30.0827 164.754 30.9048C164.927 31.7269 164.852 32.5822 164.537 33.3611C164.223 34.1401 163.684 34.8072 162.989 35.277C162.293 35.7469 161.474 35.9981 160.636 35.9985C160.089 36.017 159.544 35.9249 159.033 35.7276C158.523 35.5303 158.057 35.232 157.664 34.8503C157.271 34.4687 156.959 34.0116 156.746 33.5063C156.533 33.001 156.424 32.4579 156.425 31.9094ZM162.618 31.9094C162.608 31.5188 162.483 31.1398 162.26 30.8198C162.036 30.4997 161.723 30.2529 161.361 30.1102C160.998 29.9674 160.601 29.9351 160.22 30.0172C159.839 30.0994 159.49 30.2924 159.218 30.5721C158.946 30.8517 158.762 31.2056 158.689 31.5895C158.617 31.9733 158.659 32.3701 158.81 32.7302C158.962 33.0902 159.215 33.3975 159.54 33.6137C159.865 33.8298 160.246 33.9452 160.636 33.9453C160.901 33.9488 161.165 33.8982 161.41 33.7965C161.656 33.6949 161.878 33.5443 162.064 33.3539C162.249 33.1635 162.394 32.9372 162.49 32.6889C162.586 32.4406 162.63 32.1754 162.62 31.9094H162.618Z" fill="black"/>
<path d="M166.172 34.6357C166.175 34.4554 166.213 34.2774 166.285 34.112C166.356 33.9466 166.46 33.797 166.589 33.6719C166.719 33.5468 166.872 33.4487 167.039 33.3831C167.207 33.3176 167.386 33.286 167.566 33.2901C167.75 33.2789 167.935 33.3056 168.108 33.3686C168.282 33.4316 168.441 33.5296 168.576 33.6564C168.71 33.7833 168.817 33.9364 168.89 34.1063C168.964 34.2762 169.001 34.4593 169.001 34.6444C169.001 34.8295 168.964 35.0127 168.89 35.1826C168.817 35.3525 168.71 35.5055 168.576 35.6324C168.441 35.7593 168.282 35.8572 168.108 35.9202C167.935 35.9832 167.75 36.01 167.566 35.9988C167.384 36.0029 167.204 35.9707 167.035 35.9041C166.867 35.8375 166.713 35.7378 166.583 35.6108C166.453 35.4839 166.35 35.3322 166.28 35.1648C166.209 34.9974 166.173 34.8175 166.172 34.6357Z" fill="black"/>
<path d="M24.7158 0.0957031H17.9346V23.4721C17.9346 24.9537 17.3474 26.3746 16.3021 27.4222C15.2569 28.4698 13.8392 29.0584 12.361 29.0584C10.8828 29.0584 9.46512 28.4698 8.41987 27.4222C7.37462 26.3746 6.7874 24.9537 6.7874 23.4721V20.432H7.62939e-06V23.5168C7.62939e-06 26.7897 1.29723 29.9286 3.60631 32.2429C5.91539 34.5572 9.04716 35.8574 12.3127 35.8574H12.4019C15.6674 35.8574 18.7992 34.5572 21.1082 32.2429C23.4173 29.9286 24.7145 26.7897 24.7145 23.5168L24.7158 0.0957031Z" fill="black"/>
<path d="M29.8695 11.6118H36.6755V35.8758H29.8695V11.6118Z" fill="black"/>
<path d="M68.1056 6.40427H58.2354V35.8759H51.0145V6.40427H41.1443V0H68.1068L68.1056 6.40427Z" fill="black"/>
<path d="M80.7292 6.40427V15.048H92.5749V21.4001H80.7292V35.8759H73.5082V0H95.6404V6.40427H80.7292Z" fill="black"/>
<path d="M100.73 11.6118H107.536V35.8758H100.73V11.6118Z" fill="black"/>
<path d="M138.083 22.5461V35.876H131.277V23.2747C131.277 19.4265 128.99 17.7034 126.653 17.7034C124.212 17.7034 121.203 19.0056 121.203 23.4311V35.876H114.397V11.6107H121.203V15.6725C122.243 12.3928 126.087 10.9863 128.476 10.9863C134.81 10.9863 138.135 15.2592 138.083 22.5461Z" fill="black"/>
<path d="M28.9344 4.06197C28.8918 3.198 29.1086 2.34106 29.5566 1.60175C30.0047 0.86244 30.6636 0.274667 31.4482 -0.0856742C32.2328 -0.446015 33.1072 -0.562388 33.9585 -0.41981C34.8098 -0.277232 35.5988 0.117753 36.2239 0.714206C36.849 1.31066 37.2814 2.0812 37.4653 2.92636C37.6492 3.77152 37.5762 4.65253 37.2556 5.45568C36.9351 6.25883 36.3817 6.94728 35.667 7.43216C34.9523 7.91703 34.1089 8.17608 33.2459 8.17589C32.1312 8.19862 31.0526 7.77905 30.2451 7.00854C29.4376 6.23802 28.9665 5.17897 28.9344 4.06197Z" fill="black"/>
<path d="M99.7945 4.06197C99.752 3.198 99.9687 2.34106 100.417 1.60175C100.865 0.86244 101.524 0.274667 102.308 -0.0856742C103.093 -0.446015 103.967 -0.562388 104.819 -0.41981C105.67 -0.277232 106.459 0.117753 107.084 0.714206C107.709 1.31066 108.142 2.0812 108.325 2.92636C108.509 3.77152 108.436 4.65253 108.116 5.45568C107.795 6.25883 107.242 6.94728 106.527 7.43216C105.812 7.91703 104.969 8.17608 104.106 8.17589C102.991 8.19862 101.913 7.77905 101.105 7.00854C100.298 6.23802 99.8266 5.17897 99.7945 4.06197Z" fill="black"/>
</g>
<defs>
<clipPath id="clip0">
<rect width="169" height="36" fill="white"/>
</clipPath>
</defs>
</svg>
