<svg width="52" height="61" viewBox="0 0 52 61" fill="none" xmlns="http://www.w3.org/2000/svg">
<path d="M27.5439 0.539062C25.7866 0.539062 24.3564 1.96919 24.3564 3.72656V4.78906C24.3564 4.90381 24.3743 5.01687 24.4104 5.12524L25.0081 6.91406H22.3186C21.917 6.91406 21.5488 7.14014 21.3682 7.49927L19.5337 11.1641H18.0686H16.9189V10.1016C16.9189 9.51506 16.4429 9.03906 15.8564 9.03906H1.0686C0.482104 9.03906 0.00610352 9.51506 0.00610352 10.1016C0.00610352 10.6881 0.479979 11.1641 1.0686 11.1641H6.29395V28.1641H1.0686C0.482104 28.1641 0.00610352 28.6401 0.00610352 29.2266C0.00610352 29.8131 0.479979 30.2891 1.0686 30.2891H15.8564C16.4429 30.2891 16.9189 29.8131 16.9189 29.2266V28.1641H19.7495L21.5632 29.9778C21.7439 30.1584 21.9869 30.2575 22.2397 30.2766L11.3948 44.7407C9.20815 47.6583 8.86012 51.4959 10.49 54.7556C12.1199 58.0154 15.3996 60.0391 19.0439 60.0391H42.4189C46.0633 60.0391 49.3409 58.0154 50.9729 54.7556C52.6028 51.4959 52.2547 47.6562 50.0681 44.7407L38.8123 29.7329C39.6516 29.1592 40.2068 28.1938 40.2068 27.1016C40.2068 26.2813 39.8909 25.5418 39.3809 24.9766C39.8909 24.4113 40.2068 23.6718 40.2068 22.8516C40.2068 22.0313 39.8909 21.2918 39.3809 20.7266C39.8909 20.1613 40.2068 19.4218 40.2068 18.6016C40.2068 17.7813 39.8909 17.0418 39.3809 16.4766C39.8909 15.9113 40.2068 15.1718 40.2068 14.3516C40.2068 12.7217 38.9758 11.3905 37.397 11.2014L38.1274 8.27539L39.1733 5.12524C39.2095 5.01687 39.2314 4.90381 39.2314 4.78906V3.72656C39.2314 1.96919 37.8013 0.539062 36.0439 0.539062C35.2237 0.539062 34.4842 0.859141 33.9189 1.36914C33.3537 0.859141 32.6142 0.539062 31.7939 0.539062C30.9737 0.539062 30.2342 0.859141 29.6689 1.36914C29.1037 0.859141 28.3642 0.539062 27.5439 0.539062ZM27.5439 2.66406C28.1304 2.66406 28.6064 3.14219 28.6064 3.72656V4.78906C28.6064 5.37556 29.0824 5.85156 29.6689 5.85156C30.2554 5.85156 30.7314 5.37556 30.7314 4.78906V3.72656C30.7314 3.14219 31.2074 2.66406 31.7939 2.66406C32.3804 2.66406 32.8564 3.14219 32.8564 3.72656V4.78906C32.8564 5.37556 33.3324 5.85156 33.9189 5.85156C34.5054 5.85156 34.9814 5.37556 34.9814 4.78906V3.72656C34.9814 3.14219 35.4574 2.66406 36.0439 2.66406C36.6304 2.66406 37.1064 3.14219 37.1064 3.72656V4.6189L36.0979 7.64038C36.0937 7.65313 36.098 7.66701 36.0938 7.68188C36.0895 7.69463 36.0793 7.70851 36.0771 7.72339L35.2139 11.1641H28.3699L27.5107 7.71924C27.5065 7.70436 27.4942 7.69261 27.49 7.67773C27.4857 7.66498 27.4901 7.65101 27.4858 7.64038L26.4773 4.6189V3.72656H26.4814C26.4814 3.14219 26.9574 2.66406 27.5439 2.66406ZM22.9744 9.03906H25.6514L26.5146 12.4839C26.5231 12.5136 26.5414 12.5393 26.552 12.5669C26.569 12.6179 26.5888 12.6654 26.6143 12.7122C26.6504 12.7802 26.694 12.8394 26.7429 12.8989C26.7748 12.9372 26.8064 12.975 26.8425 13.0068C26.8617 13.0238 26.8732 13.0479 26.8923 13.0649C26.8945 13.0671 26.8985 13.067 26.9006 13.0691C26.9453 13.1031 26.997 13.1224 27.0459 13.1479C27.0841 13.1692 27.1196 13.1953 27.1621 13.2102C27.2811 13.2612 27.4059 13.2891 27.5398 13.2891H36.0398H37.0151C37.6016 13.2891 38.0776 13.7672 38.0776 14.3516C38.0776 14.9359 37.6058 15.4141 37.0193 15.4141H32.0305C31.444 15.4141 30.968 15.8901 30.968 16.4766C30.968 17.0631 31.444 17.5391 32.0305 17.5391H37.0193C37.6058 17.5391 38.0818 18.0172 38.0818 18.6016C38.0818 19.1859 37.6058 19.6641 37.0193 19.6641H32.0305C31.444 19.6641 30.968 20.1401 30.968 20.7266C30.968 21.3131 31.444 21.7891 32.0305 21.7891H37.0193C37.6058 21.7891 38.0818 22.2672 38.0818 22.8516C38.0818 23.4359 37.6058 23.9141 37.0193 23.9141H32.0305C31.444 23.9141 30.968 24.3901 30.968 24.9766C30.968 25.5631 31.444 26.0391 32.0305 26.0391H37.0193C37.6058 26.0391 38.0818 26.5172 38.0818 27.1016C38.0818 27.6859 37.6058 28.1641 37.0193 28.1641H35.0686H33.4126H32.0347H28.0503H24.3564H22.7585L20.9448 26.3503C20.8471 26.2526 20.7258 26.1732 20.5962 26.1179C20.4644 26.0648 20.3317 26.0391 20.1936 26.0391H16.9189V13.2891H18.0686H20.1936C20.3785 13.2891 20.5449 13.2308 20.6958 13.1479C20.7362 13.1267 20.7676 13.0987 20.8037 13.0732C20.9227 12.9861 21.0199 12.8812 21.0942 12.7537C21.107 12.7324 21.1334 12.7272 21.144 12.7039L22.9744 9.03906ZM8.41895 11.1641H14.7939V12.2266V27.1016V28.1641H8.41895V11.1641ZM11.6064 23.9141C11.3247 23.9141 11.0544 24.026 10.8551 24.2253C10.6559 24.4245 10.5439 24.6948 10.5439 24.9766C10.5439 25.2584 10.6559 25.5286 10.8551 25.7279C11.0544 25.9271 11.3247 26.0391 11.6064 26.0391C11.8882 26.0391 12.1585 25.9271 12.3577 25.7279C12.557 25.5286 12.6689 25.2584 12.6689 24.9766C12.6689 24.6948 12.557 24.4245 12.3577 24.2253C12.1585 24.026 11.8882 23.9141 11.6064 23.9141ZM24.8877 30.2891H26.5977L25.6929 33.157C25.5165 33.718 25.8271 34.3129 26.386 34.4893C26.4922 34.5233 26.6014 34.5391 26.7056 34.5391C27.1561 34.5391 27.5759 34.2488 27.7183 33.7961L28.8264 30.2891H29.6689V33.4766C29.6689 34.0631 30.1449 34.5391 30.7314 34.5391C31.3179 34.5391 31.7939 34.0631 31.7939 33.4766V30.2891H32.0347H32.6365L33.7446 33.7961C33.921 34.355 34.5202 34.6656 35.0769 34.4893C35.6358 34.3129 35.9464 33.718 35.77 33.157L34.8611 30.2891H35.0645H36.571L48.3665 46.0107C50.0941 48.3142 50.3556 51.2276 49.0679 53.801C47.7801 56.3744 45.2983 57.9141 42.4189 57.9141H19.0439C16.1667 57.9141 13.6765 56.3765 12.3909 53.801C11.1031 51.2276 11.3668 48.3142 13.0923 46.0107L24.8877 30.2891ZM26.4814 38.731C25.8949 38.731 25.4189 39.207 25.4189 39.7935C25.4189 40.38 25.8949 40.856 26.4814 40.856H28.6064C30.0026 40.856 31.1758 41.7625 31.6072 43.0142H26.4814C25.8949 43.0142 25.4189 43.4902 25.4189 44.0767C25.4189 44.6632 25.8949 45.1392 26.4814 45.1392H31.5864C31.1381 46.3568 29.9771 47.231 28.6064 47.231H26.4814C25.8949 47.231 25.4189 47.707 25.4189 48.2935C25.4189 48.2998 25.421 48.3037 25.4231 48.3101C25.4188 48.5884 25.5177 48.8675 25.7302 49.0779L32.1052 55.4529C32.3135 55.6611 32.5844 55.7642 32.8564 55.7642C33.1284 55.7642 33.3994 55.659 33.6077 55.4529C34.022 55.0385 34.022 54.3648 33.6077 53.9504L28.9758 49.3186C31.3601 49.1507 33.3225 47.4257 33.8027 45.1392H34.9814C35.5679 45.1392 36.0439 44.6632 36.0439 44.0767C36.0439 43.4902 35.5679 43.0142 34.9814 43.0142H33.8152C33.6558 42.2109 33.3075 41.485 32.8315 40.856H34.9814C35.5679 40.856 36.0439 40.38 36.0439 39.7935C36.0439 39.207 35.5679 38.731 34.9814 38.731H28.6064H26.4814Z" fill="white"/>
</svg>
