<svg width="57" height="56" viewBox="0 0 57 56" fill="none" xmlns="http://www.w3.org/2000/svg">
<g clip-path="url(#clip0)">
<path d="M40.2015 14.1663H36.9126H36.8628H36.8326L36.7871 14.1738L36.7525 14.1792C36.7396 14.1792 36.7277 14.1857 36.7147 14.189L36.6769 14.1987L36.6369 14.2127L36.6023 14.2257L36.5558 14.2484L36.532 14.2603L36.492 14.2841L36.4649 14.3014C36.4541 14.3079 36.4444 14.3165 36.4336 14.3241C36.4228 14.3317 36.4109 14.3403 36.4012 14.349L36.3763 14.3717L36.3406 14.4041C36.3341 14.4106 36.3287 14.4182 36.3233 14.4247L36.292 14.4603L36.2638 14.4906C36.2563 14.5014 36.2476 14.5122 36.2401 14.5241C36.2325 14.536 36.226 14.5468 36.2195 14.5576L36.2001 14.5922C36.1936 14.6041 36.1882 14.616 36.1828 14.6279L36.1665 14.6647L36.1557 14.7068C36.1508 14.7192 36.1464 14.7319 36.1428 14.7447L36.133 14.7825C36.133 14.7955 36.1265 14.8085 36.1244 14.8215C36.1222 14.8344 36.1244 14.8485 36.1179 14.8615C36.1114 14.8744 36.1179 14.8874 36.1179 14.9004C36.1179 14.9134 36.1179 14.9307 36.1179 14.9458C36.1179 14.9609 36.1179 14.9642 36.1179 14.9739V14.9804V15.0269C36.1168 15.0384 36.1168 15.05 36.1179 15.0615C36.1179 15.0744 36.1179 15.0874 36.1233 15.1004L36.1298 15.1404C36.1298 15.1501 36.1298 15.1599 36.1373 15.1696C36.1449 15.1793 36.1449 15.2009 36.1503 15.2172C36.1557 15.2334 36.1503 15.2323 36.1579 15.2399L36.1763 15.2907L36.1936 15.3264C36.2001 15.3383 36.2044 15.3501 36.2109 15.361C36.2174 15.3718 36.2249 15.3847 36.2325 15.3966L36.252 15.428C36.2585 15.4382 36.2658 15.4479 36.2736 15.4572L36.3006 15.4929L36.3222 15.5156C36.333 15.5285 36.3439 15.5404 36.3557 15.5523C36.3676 15.5642 36.3557 15.5523 36.3557 15.5523L43.4548 22.4221C43.6096 22.5703 43.8168 22.6512 44.031 22.647C44.2453 22.6429 44.4492 22.5542 44.5982 22.4001C44.7472 22.2461 44.8292 22.0394 44.8262 21.8251C44.8233 21.6109 44.7356 21.4065 44.5824 21.2566L38.9235 15.788H40.2015C41.3291 15.7868 42.42 15.3876 43.282 14.6607C44.144 13.9338 44.7217 12.9259 44.9133 11.8147H46.308C46.523 11.8147 46.7293 11.7293 46.8814 11.5772C47.0334 11.4251 47.1189 11.2189 47.1189 11.0038C47.1189 10.7888 47.0334 10.5825 46.8814 10.4304C46.7293 10.2784 46.523 10.1929 46.308 10.1929H44.9133C44.7636 9.32109 44.3739 8.50824 43.7878 7.84569H46.308C46.523 7.84569 46.7293 7.76026 46.8814 7.60819C47.0334 7.45612 47.1189 7.24987 47.1189 7.03481C47.1189 6.81975 47.0334 6.61349 46.8814 6.46142C46.7293 6.30935 46.523 6.22392 46.308 6.22392H36.919C36.704 6.22392 36.4977 6.30935 36.3457 6.46142C36.1936 6.61349 36.1082 6.81975 36.1082 7.03481C36.1082 7.24987 36.1936 7.45612 36.3457 7.60819C36.4977 7.76026 36.704 7.84569 36.919 7.84569H40.2015C40.8977 7.84644 41.5741 8.07688 42.126 8.50127C42.6778 8.92566 43.0742 9.52029 43.2537 10.1929H36.919C36.704 10.1929 36.4977 10.2784 36.3457 10.4304C36.1936 10.5825 36.1082 10.7888 36.1082 11.0038C36.1082 11.2189 36.1936 11.4251 36.3457 11.5772C36.4977 11.7293 36.704 11.8147 36.919 11.8147H43.2537C43.0748 12.488 42.6788 13.0835 42.1269 13.5087C41.575 13.9339 40.8982 14.1651 40.2015 14.1663ZM56.0494 37.71C56.0204 37.1995 55.8758 36.7022 55.6264 36.2557C55.3771 35.8093 55.0296 35.4253 54.6102 35.1328C54.1908 34.8403 53.7104 34.6469 53.2052 34.5673C52.7001 34.4876 52.1835 34.5237 51.6944 34.673L39.2263 38.4657C39.1121 37.9133 38.867 37.3963 38.5116 36.9581C38.1562 36.52 37.7009 36.1734 37.1839 35.9477L29.06 32.4165C26.2904 31.2143 23.1848 31.0304 20.2927 31.8976L16.4653 33.049L16.4145 32.7539C16.3543 32.4107 16.2271 32.0828 16.0401 31.7889C15.8532 31.4949 15.6101 31.2407 15.3249 31.0407C15.0396 30.8407 14.7178 30.6988 14.3777 30.6232C14.0376 30.5477 13.686 30.5398 13.3429 30.6002L6.84392 31.7224L1.36559 32.6728C1.26031 32.691 1.15964 32.7297 1.06933 32.7868C0.979018 32.8438 0.900834 32.9182 0.83924 33.0055C0.777647 33.0927 0.733851 33.1913 0.710352 33.2955C0.686854 33.3998 0.684113 33.5076 0.702287 33.6129C0.72046 33.7181 0.759193 33.8188 0.816272 33.9091C0.873351 33.9994 0.947659 34.0776 1.03495 34.1392C1.12225 34.2008 1.22082 34.2446 1.32504 34.2681C1.42926 34.2916 1.53709 34.2943 1.64237 34.2762L6.32063 33.4642L9.58903 52.3232L1.36559 53.7493C1.16562 53.7839 0.985901 53.8923 0.861933 54.0529C0.737965 54.2136 0.678758 54.415 0.696005 54.6172C0.713252 54.8194 0.8057 55.0078 0.95509 55.1452C1.10448 55.2825 1.29995 55.3589 1.5029 55.3591C1.54963 55.359 1.59628 55.355 1.64237 55.3473L17.1692 52.6562C17.8624 52.5353 18.4794 52.1443 18.8847 51.5691C19.2901 50.9939 19.4508 50.2813 19.3315 49.5878L19.1434 48.5066L19.3748 48.4526C19.8725 48.3383 20.3894 48.3353 20.8884 48.4439L35.3621 51.6345C35.853 51.7409 36.3541 51.7935 36.8563 51.7913C38.3174 51.792 39.7418 51.3344 40.9291 50.483L54.6439 40.6551C55.1088 40.3238 55.4818 39.8797 55.7277 39.3644C55.9736 38.8492 56.0843 38.2798 56.0494 37.71ZM16.8924 51.0571L11.187 52.0464L7.91861 33.182L13.624 32.1927C13.8932 32.147 14.1696 32.2098 14.3925 32.3675C14.6154 32.5252 14.7668 32.7648 14.8133 33.0339L17.7325 49.8635C17.7789 50.1332 17.7166 50.4102 17.5591 50.634C17.4016 50.8577 17.1619 51.0099 16.8924 51.0571ZM53.6946 39.3339L39.9842 49.1726C39.3722 49.6107 38.6751 49.9152 37.9379 50.0667C37.2007 50.2181 36.44 50.213 35.7049 50.0516L21.2355 46.8557C20.5019 46.6956 19.742 46.7 19.0104 46.8687L18.8699 46.9022L16.7443 34.6622L20.7598 33.4534C23.2842 32.6956 25.9954 32.8553 28.4134 33.9042L36.5385 37.4354C36.9179 37.6012 37.2328 37.8864 37.4352 38.2477C37.6376 38.6089 37.7164 39.0264 37.6596 39.4366C37.6507 39.5033 37.6377 39.5694 37.6207 39.6345C37.5024 40.1155 37.1998 40.5308 36.778 40.7907C36.3563 41.0506 35.8494 41.1343 35.3665 41.0238L30.7498 39.9826C30.6459 39.9592 30.5384 39.9565 30.4334 39.9746C30.3284 39.9927 30.228 40.0314 30.138 40.0883C30.0479 40.1452 29.97 40.2193 29.9085 40.3064C29.8471 40.3934 29.8035 40.4917 29.78 40.5957C29.7566 40.6996 29.7539 40.8071 29.772 40.9121C29.7901 41.0171 29.8288 41.1175 29.8857 41.2075C29.9426 41.2976 30.0167 41.3755 30.1038 41.437C30.1908 41.4984 30.2891 41.542 30.3931 41.5655L35.0086 42.6012C35.8776 42.7991 36.7893 42.6589 37.5588 42.2091C38.3282 41.7594 38.8977 41.0337 39.1517 40.1794L52.1572 36.2223C52.412 36.1431 52.6815 36.1231 52.9452 36.1638C53.209 36.2046 53.4599 36.305 53.6789 36.4575C53.8979 36.61 54.0792 36.8104 54.2089 37.0436C54.3387 37.2768 54.4135 37.5365 54.4276 37.803C54.4454 38.0994 54.3875 38.3955 54.2592 38.6633C54.131 38.9312 53.9367 39.1619 53.6946 39.3339ZM41.6135 28.8703C44.4677 28.8693 47.2575 28.0223 49.6304 26.4362C52.0034 24.8502 53.8529 22.5964 54.9453 19.9595C56.0377 17.3227 56.3239 14.4212 55.7678 11.6217C55.2117 8.82223 53.8382 6.25043 51.8209 4.23131C50.4843 2.87357 48.8921 1.79385 47.1362 1.05441C45.3803 0.314965 43.4953 -0.0695744 41.5901 -0.0770377C39.6848 -0.084501 37.797 0.28526 36.0353 1.01092C34.2736 1.73659 32.6731 2.8038 31.3258 4.15103C29.9786 5.49825 28.9114 7.09884 28.1857 8.8605C27.4601 10.6222 27.0903 12.51 27.0978 14.4153C27.1052 16.3205 27.4898 18.2055 28.2292 19.9614C28.9687 21.7173 30.0484 23.3095 31.4061 24.6461C32.7438 25.99 34.3347 27.0553 36.0868 27.7804C37.8389 28.5055 39.7173 28.8759 41.6135 28.8703ZM32.5532 5.37736C34.9609 2.99632 38.2131 1.66507 41.5993 1.67448C44.9855 1.6839 48.2302 3.03322 50.6246 5.4276C53.019 7.82199 54.3683 11.0668 54.3777 14.4529C54.3872 17.8391 53.0559 21.0913 50.6749 23.499C49.4874 24.6998 48.0743 25.6539 46.5168 26.3067C44.9592 26.9595 43.2881 27.2979 41.5993 27.3026C39.9105 27.3073 38.2375 26.9782 36.6764 26.3341C35.1153 25.69 33.6969 24.7437 32.5027 23.5495C31.3086 22.3554 30.3623 20.937 29.7182 19.3759C29.0741 17.8147 28.7449 16.1417 28.7496 14.4529C28.7543 12.7642 29.0928 11.093 29.7455 9.53547C30.3983 7.97796 31.3525 6.56484 32.5532 5.37736Z" fill="white"/>
</g>
<defs>
<clipPath id="clip0">
<rect width="55.3563" height="55.3563" fill="white" transform="translate(0.693115 0.00292969)"/>
</clipPath>
</defs>
</svg>
