<svg width="49" height="36" viewBox="0 0 49 36" fill="none" xmlns="http://www.w3.org/2000/svg">
<path d="M39.3745 0.582031L37.9605 1.99603L44.2535 8.28903H18.6675V10.289H44.2535L37.9605 16.582L39.3745 17.996L48.0815 9.28903L39.3745 0.582031ZM0.667542 8.28903H3.66754V10.289H0.667542V8.28903ZM6.66754 8.28903H9.66754V10.289H6.66754V8.28903ZM12.6675 8.28903H15.6675V10.289H12.6675V8.28903ZM11.3745 34.582L5.08154 28.289H30.6675V26.289H5.08154L11.3745 19.996L9.96054 18.582L1.25354 27.289L9.96054 35.996L11.3745 34.582ZM45.6675 26.289H48.6675V28.289H45.6675V26.289ZM39.6675 26.289H42.6675V28.289H39.6675V26.289ZM33.6675 26.289H36.6675V28.289H33.6675V26.289Z" fill="white"/>
</svg>
