<svg width="65" height="51" viewBox="0 0 65 51" fill="none" xmlns="http://www.w3.org/2000/svg">
<path fill-rule="evenodd" clip-rule="evenodd" d="M26.4062 0.139648C24.1732 0.139648 22.3438 1.9692 22.3438 4.20215V6.2334H0V7.24902V10.2959V12.3271V25.1931V44.8271C0 48.1856 2.73537 50.9209 6.09375 50.9209H58.9062C62.2646 50.9209 65 48.1856 65 44.8271V25.1931V10.2959V6.2334H42.6562V4.20215C42.6562 1.9692 40.8268 0.139648 38.5938 0.139648H26.4062ZM26.4062 2.1709H38.5938C39.7366 2.1709 40.625 3.05937 40.625 4.20215V6.2334H24.375V4.20215C24.375 3.05937 25.2634 2.1709 26.4062 2.1709ZM2.03125 8.26465H23.3594H62.9688V10.2959V25.1931C62.9688 26.336 62.0804 27.2243 60.9375 27.2243H45.1199C44.5099 20.5199 38.8128 15.374 31.9406 15.374C25.1054 15.374 19.5111 20.5842 18.8367 27.2243H4.0625C2.9196 27.2243 2.03125 26.336 2.03125 25.1931V12.3271V10.2959V8.26465ZM31.9406 17.4013V17.4054C38.1502 17.4054 43.1482 22.2452 43.1482 28.4186V28.5733C43.1482 34.7495 38.1343 39.7531 31.9406 39.7531C25.7449 39.7531 20.8005 34.7568 20.8005 28.5733C20.8005 22.3926 25.7449 17.4014 31.9406 17.4014V17.4013ZM26.9537 20.4521V20.4721H26.9061V22.5033H28.9929C30.8925 22.5033 31.8528 23.4 32.1985 24.5147H26.9537V26.546H32.1985C31.8519 27.6593 30.8906 28.5574 28.9929 28.5574H26.9061V30.5886H27.4457L33.714 36.7062L35.1303 35.2502L30.2307 30.4656C32.4563 30.0149 33.8878 28.3649 34.2813 26.5459H37.0544V24.5146H34.2813C34.1238 23.7838 33.7829 23.0928 33.3054 22.4834H37.0544V20.4521H26.9537ZM2.03125 28.6843C2.6323 29.0367 3.31961 29.2556 4.0625 29.2556H18.8049C19.1597 36.2124 24.8782 41.7842 31.9406 41.7842C39.0014 41.7842 44.7849 36.2186 45.1437 29.2556H60.9375C61.6804 29.2556 62.3677 29.0367 62.9688 28.6843V44.8271C62.9688 47.0954 61.1745 48.8896 58.9062 48.8896H6.09375C3.82554 48.8896 2.03125 47.0954 2.03125 44.8271V28.6843Z" fill="white"/>
</svg>
