<svg width="41" height="65" viewBox="0 0 41 65" fill="none" xmlns="http://www.w3.org/2000/svg">
<path d="M17.2046 0.632812V0.645081C14.9029 0.645081 13.0171 2.53092 13.0171 4.83258V26.3549L7.73776 21.0755C6.10861 19.4464 3.43733 19.4464 1.8082 21.0755C0.179179 22.7049 0.179077 25.3759 1.8082 27.0051L1.85727 27.05L1.91452 27.095C4.79643 29.2866 6.39981 32.675 8.40842 36.3288C10.3234 39.8124 12.7707 43.4567 17.0738 46.1555V51.6353H16.5708C15.7085 51.6353 14.98 52.3638 14.98 53.226V62.6111C14.98 63.4733 15.7085 64.1978 16.5708 64.1978H38.3834C39.2457 64.1978 39.9742 63.4733 39.9742 62.6111V53.226C39.9742 52.3638 39.2457 51.6353 38.3834 51.6353H38.0113V48.6132C38.0113 44.9933 40.0101 41.4608 40.105 37.7764V37.7519V22.5886C40.105 20.2869 38.2193 18.4011 35.9175 18.4011C34.9241 18.4011 34.086 18.8799 33.3658 19.4643C32.8372 17.7562 31.5112 16.3727 29.6363 16.3727C28.6595 16.3727 27.7813 16.7431 27.0722 17.3092C26.4842 15.705 25.2209 14.4099 23.4204 14.4099C22.6556 14.4099 22.0136 14.7695 21.3921 15.1296V4.82031C21.3921 2.51865 19.5064 0.632812 17.2046 0.632812ZM17.2046 2.73474C18.3827 2.73474 19.2984 3.65055 19.2984 4.82849V17.9512L21.3717 18.1598C21.566 17.2052 22.3805 16.5118 23.4204 16.5118C24.5985 16.5118 25.5142 17.4274 25.5142 18.6055V19.9796L27.5875 20.1922C27.783 19.2318 28.6264 18.4788 29.6363 18.4788C30.8143 18.4788 31.73 19.3944 31.73 20.5725V22.5967H33.8238C33.8238 21.4188 34.7395 20.503 35.9175 20.503C37.0956 20.503 38.0113 21.4188 38.0113 22.5967V37.7233C37.9374 40.5919 35.9175 44.2873 35.9175 48.6132V51.6353H19.1675V45.0882L18.6441 44.7856C14.3935 42.3315 12.2091 38.8964 10.2445 35.3228C8.30214 31.7895 6.61196 28.102 3.28854 25.5206C2.45705 24.6892 2.45694 23.3834 3.28854 22.5518C4.11999 21.7201 5.42595 21.7201 6.25742 22.5518L15.1109 31.4052V4.82849C15.1109 3.65055 16.0266 2.73474 17.2046 2.73474ZM17.0738 53.729H37.8804V62.104H17.0738V53.729Z" fill="white"/>
</svg>
