<svg width="61" height="63" viewBox="0 0 61 63" fill="none" xmlns="http://www.w3.org/2000/svg">
<g clip-path="url(#clip0)">
<path d="M21.0105 45.0637H48.7012C49.5897 45.0673 50.4583 44.794 51.1924 44.2799C51.9266 43.7658 52.4917 43.035 52.8132 42.184L58.8727 26.3294C59.1357 25.6413 59.2311 24.8976 59.1507 24.163C59.0702 23.4284 58.8163 22.7251 58.411 22.1143C58.0057 21.5035 57.4613 21.0036 56.8252 20.6581C56.1891 20.3127 55.4804 20.1321 54.7609 20.1321H53.0787L50.9568 8.65079C50.8408 8.02828 50.5174 7.4667 50.0421 7.0626C49.5669 6.6585 48.9694 6.43711 48.3525 6.43649H48.2459V5.26321C48.2462 4.64038 48.1271 4.02358 47.8953 3.44806C47.6635 2.87255 47.3236 2.34959 46.8951 1.90907C46.4665 1.46855 45.9577 1.11909 45.3976 0.880669C44.8376 0.642248 44.2373 0.519531 43.631 0.519531C43.0248 0.519531 42.4245 0.642248 41.8645 0.880669C41.3044 1.11909 40.7956 1.46855 40.367 1.90907C39.9385 2.34959 39.5986 2.87255 39.3668 3.44806C39.135 4.02358 39.0159 4.64038 39.0162 5.26321V6.43649H38.9097C38.2927 6.43715 37.6952 6.65862 37.2199 7.06284C36.7446 7.46706 36.4213 8.02876 36.3054 8.65139L35.6797 12.0374L35.0538 8.65079C34.9378 8.02828 34.6144 7.4667 34.1391 7.0626C33.6639 6.6585 33.0664 6.43711 32.4495 6.43649H32.3429V5.26321C32.3432 4.64038 32.2241 4.02358 31.9923 3.44806C31.7605 2.87255 31.4206 2.34959 30.9921 1.90907C30.5635 1.46855 30.0547 1.11909 29.4946 0.880669C28.9346 0.642248 28.3343 0.519531 27.728 0.519531C27.1218 0.519531 26.5215 0.642248 25.9615 0.880669C25.4014 1.11909 24.8926 1.46855 24.464 1.90907C24.0355 2.34959 23.6956 2.87255 23.4638 3.44806C23.232 4.02358 23.1129 4.64038 23.1132 5.26321V6.43649H23.0067C22.3897 6.43715 21.7922 6.65862 21.3169 7.06284C20.8416 7.46706 20.5183 8.02876 20.4024 8.65139L18.2805 20.1321H13.7657L12.8766 16.1216C12.7128 15.3726 12.3658 14.6789 11.8684 14.106C11.371 13.5332 10.7397 13.1001 10.0341 12.8476L1.69155 9.83554C1.47052 9.75594 1.22777 9.76976 1.01666 9.87397C0.805549 9.97818 0.643348 10.1642 0.565706 10.3913C0.488065 10.6183 0.501338 10.8677 0.602607 11.0847C0.703877 11.3016 0.884856 11.4684 1.10577 11.5484L9.44828 14.5605C9.87167 14.7119 10.2505 14.9717 10.5489 15.3154C10.8473 15.6592 11.0555 16.0754 11.1537 16.5248L12.1994 21.2414L12.1996 21.242L12.1998 21.243L17.4365 44.6769C16.6739 45.3921 16.1315 46.3209 15.876 47.3488C15.6205 48.3767 15.6631 49.459 15.9986 50.4623C16.3341 51.4657 16.9478 52.3463 17.7642 52.996C18.5806 53.6456 19.564 54.0358 20.5935 54.1186C19.9827 54.8572 19.5903 55.7598 19.4623 56.72C19.3343 57.6802 19.4762 58.658 19.8713 59.5381C20.2663 60.4182 20.898 61.1639 21.692 61.6874C22.4859 62.2108 23.4089 62.4901 24.3522 62.4924C25.2956 62.4947 26.2199 62.2199 27.0162 61.7004C27.8125 61.1808 28.4477 60.4382 28.8468 59.56C29.2459 58.6819 29.3923 57.7048 29.2688 56.7439C29.1453 55.7831 28.757 54.8786 28.1496 54.137H40.0149C39.4082 54.8778 39.0201 55.7813 38.8962 56.741C38.7722 57.7008 38.9177 58.677 39.3153 59.5547C39.713 60.4325 40.3464 61.1753 41.141 61.6957C41.9357 62.2162 42.8584 62.4927 43.8008 62.4927C44.7431 62.4927 45.6659 62.2162 46.4605 61.6957C47.2551 61.1753 47.8885 60.4325 48.2862 59.5547C48.6839 58.677 48.8293 57.7008 48.7054 56.741C48.5815 55.7813 48.1933 54.8778 47.5866 54.137H53.0933C53.3276 54.137 53.5523 54.0414 53.718 53.8711C53.8837 53.7009 53.9768 53.47 53.9768 53.2293C53.9768 52.9886 53.8837 52.7577 53.718 52.5874C53.5523 52.4172 53.3276 52.3216 53.0933 52.3216H21.0105C20.5467 52.3216 20.0874 52.2277 19.6588 52.0454C19.2303 51.863 18.8409 51.5957 18.5129 51.2587C18.1849 50.9217 17.9247 50.5217 17.7472 50.0814C17.5697 49.6411 17.4784 49.1692 17.4784 48.6927C17.4784 48.2161 17.5697 47.7442 17.7472 47.3039C17.9247 46.8636 18.1849 46.4636 18.5129 46.1266C18.8409 45.7896 19.2303 45.5223 19.6588 45.34C20.0874 45.1576 20.5467 45.0637 21.0105 45.0637ZM43.8008 54.137C44.4298 54.137 45.0448 54.3286 45.5678 54.6877C46.0909 55.0468 46.4985 55.5571 46.7393 56.1542C46.98 56.7513 47.043 57.4084 46.9203 58.0422C46.7975 58.6761 46.4946 59.2584 46.0498 59.7154C45.605 60.1724 45.0383 60.4836 44.4213 60.6097C43.8043 60.7358 43.1648 60.6711 42.5836 60.4237C42.0024 60.1764 41.5057 59.7576 41.1562 59.2202C40.8067 58.6828 40.6202 58.051 40.6202 57.4047C40.6211 56.5384 40.9565 55.7078 41.5528 55.0952C42.1491 54.4826 42.9575 54.138 43.8008 54.137ZM24.3638 54.137C24.9928 54.137 25.6078 54.3286 26.1308 54.6877C26.6539 55.0468 27.0615 55.5571 27.3023 56.1542C27.543 56.7513 27.606 57.4084 27.4833 58.0422C27.3605 58.6761 27.0576 59.2584 26.6128 59.7154C26.168 60.1724 25.6013 60.4836 24.9843 60.6097C24.3673 60.7358 23.7278 60.6711 23.1466 60.4237C22.5654 60.1764 22.0687 59.7576 21.7192 59.2202C21.3697 58.6828 21.1832 58.051 21.1832 57.4047C21.1841 56.5384 21.5196 55.7078 22.1158 55.0952C22.7121 54.4826 23.5205 54.138 24.3638 54.137ZM40.7832 5.26321C40.783 4.87882 40.8564 4.49815 40.9994 4.14295C41.1425 3.78775 41.3522 3.46498 41.6167 3.19309C41.8811 2.9212 42.1952 2.70551 42.5408 2.55835C42.8864 2.4112 43.2569 2.33546 43.631 2.33546C44.0052 2.33546 44.3757 2.4112 44.7213 2.55835C45.0669 2.70551 45.381 2.9212 45.6454 3.19309C45.9099 3.46498 46.1196 3.78775 46.2626 4.14295C46.4056 4.49815 46.4791 4.87882 46.4789 5.26321V6.43649H40.7832V5.26321ZM38.0412 8.99071C38.0799 8.78307 38.1877 8.59574 38.3462 8.46091C38.5047 8.32608 38.7039 8.25218 38.9097 8.2519H39.0162V10.9745C39.0162 11.2153 39.1093 11.4462 39.275 11.6164C39.4406 11.7866 39.6654 11.8822 39.8997 11.8822C40.134 11.8822 40.3587 11.7866 40.5244 11.6164C40.6901 11.4462 40.7832 11.2153 40.7832 10.9745V8.2519H46.4789V10.9745C46.4789 11.2153 46.572 11.4462 46.7377 11.6164C46.9033 11.7866 47.1281 11.8822 47.3624 11.8822C47.5967 11.8822 47.8214 11.7866 47.9871 11.6164C48.1528 11.4462 48.2459 11.2153 48.2459 10.9745V8.2519H48.3525C48.5582 8.25214 48.7574 8.32596 48.9159 8.46067C49.0743 8.59538 49.1822 8.78258 49.221 8.99012L51.2802 20.1321H37.1757L36.579 16.9035L38.0412 8.99071ZM24.8802 5.26321C24.88 4.87882 24.9534 4.49815 25.0964 4.14295C25.2395 3.78775 25.4492 3.46498 25.7137 3.19309C25.9781 2.9212 26.2922 2.70551 26.6378 2.55835C26.9834 2.4112 27.3539 2.33546 27.728 2.33546C28.1022 2.33546 28.4727 2.4112 28.8183 2.55835C29.1639 2.70551 29.478 2.9212 29.7424 3.19309C30.0069 3.46498 30.2166 3.78775 30.3596 4.14295C30.5026 4.49815 30.5761 4.87882 30.5759 5.26321V6.43649H24.8802V5.26321ZM22.1382 8.99071C22.1769 8.78307 22.2847 8.59574 22.4432 8.46091C22.6017 8.32608 22.8009 8.25218 23.0067 8.2519H23.1132V10.9745C23.1132 11.2153 23.2063 11.4462 23.372 11.6164C23.5377 11.7866 23.7624 11.8822 23.9967 11.8822C24.231 11.8822 24.4557 11.7866 24.6214 11.6164C24.7871 11.4462 24.8802 11.2153 24.8802 10.9745V8.2519H30.5759V10.9745C30.5759 11.2153 30.669 11.4462 30.8347 11.6164C31.0003 11.7866 31.2251 11.8822 31.4594 11.8822C31.6937 11.8822 31.9184 11.7866 32.0841 11.6164C32.2498 11.4462 32.3429 11.2153 32.3429 10.9745V8.2519H32.4495C32.6552 8.25214 32.8544 8.32594 33.0128 8.46063C33.1713 8.59532 33.2792 8.78249 33.318 8.99L34.8143 17.0864C34.8151 17.0903 34.8156 17.0943 34.8165 17.0982L35.3772 20.1321H20.0791L22.1382 8.99071ZM14.1702 21.9475H54.7609C55.1926 21.9475 55.6178 22.0559 55.9995 22.2631C56.3811 22.4704 56.7077 22.7704 56.9509 23.1369C57.194 23.5033 57.3464 23.9253 57.3947 24.3661C57.4429 24.8068 57.3857 25.253 57.2279 25.6659L51.1683 41.5205C50.9755 42.0311 50.6364 42.4695 50.1959 42.778C49.7555 43.0865 49.2343 43.2505 48.7012 43.2483H21.0105C20.3279 43.248 19.6518 43.3839 19.0197 43.6485L14.1702 21.9475Z" fill="white"/>
</g>
<defs>
<clipPath id="clip0">
<rect width="60.3136" height="61.966" fill="white" transform="translate(0.514648 0.524414)"/>
</clipPath>
</defs>
</svg>
